<?xml version="1.0" encoding="UTF-8" standalone="no"?>
<!DOCTYPE svg PUBLIC "-//W3C//DTD SVG 1.1//EN" "http://www.w3.org/Graphics/SVG/1.1/DTD/svg11.dtd">
<svg xmlns="http://www.w3.org/2000/svg" version="1.1" viewBox="0.00 0.00 1181.00 1181.00">
<g stroke-width="2.00" fill="none" stroke-linecap="butt">
<path stroke="#b9e48b" vector-effect="non-scaling-stroke" d="
  M 657.43 523.87
  L 655.43 525.07"
/>
<path stroke="#809b8b" vector-effect="non-scaling-stroke" d="
  M 655.43 525.07
  L 639.01 523.72"
/>
<path stroke="#94db9b" vector-effect="non-scaling-stroke" d="
  M 639.01 523.72
  Q 636.11 522.78 633.47 523.12"
/>
<path stroke="#809b8b" vector-effect="non-scaling-stroke" d="
  M 633.47 523.12
  C 445.66 499.90 271.95 415.08 122.20 301.79
  Q 113.98 295.57 109.75 291.92"
/>
<path stroke="#94db9b" vector-effect="non-scaling-stroke" d="
  M 109.75 291.92
  Q 108.34 291.40 107.97 290.33
  A 0.75 0.73 55.8 0 1 108.09 289.63
  L 109.11 288.35
  A 0.92 0.92 0.0 0 0 107.72 287.14
  Q 104.55 290.49 109.01 293.47"
/>
<path stroke="#809b8b" vector-effect="non-scaling-stroke" d="
  M 109.01 293.47
  Q 114.38 299.12 116.97 302.04
  C 206.35 402.96 277.05 519.53 326.16 645.04
  Q 326.25 645.28 326.27 645.79"
/>
<path stroke="#94db9b" vector-effect="non-scaling-stroke" d="
  M 326.27 645.79
  Q 322.48 646.66 313.24 648.22
  Q 253.94 658.26 197.24 662.38
  Q 183.76 663.35 170.02 663.55
  A 0.46 0.45 59.5 0 0 169.80 664.40
  C 172.78 666.12 176.49 666.16 179.06 666.69
  Q 266.04 684.68 349.97 713.68"
/>
<path stroke="#809b8b" vector-effect="non-scaling-stroke" d="
  M 349.97 713.68
  Q 350.47 714.68 350.73 715.50
  Q 387.85 832.82 395.00 954.93
  Q 395.08 956.40 396.38 955.71
  Q 501.36 900.55 599.13 833.16
  Q 599.53 832.88 599.46 833.10"
/>
<path stroke="#94db9b" vector-effect="non-scaling-stroke" d="
  M 599.46 833.10
  Q 616.35 844.04 633.07 855.25
  Q 723.47 915.88 801.67 990.88
  A 0.99 0.99 0.0 0 0 803.27 990.52
  Q 817.76 953.60 830.94 916.18
  C 837.70 896.97 843.14 877.28 849.50 857.92
  Q 867.03 804.62 882.11 750.58
  Q 889.70 723.38 891.02 714.76
  C 893.08 701.29 897.99 684.47 900.07 675.32
  Q 912.03 622.74 922.02 569.75"
/>
<path stroke="#809b8b" vector-effect="non-scaling-stroke" d="
  M 922.02 569.75
  C 922.47 569.29 922.73 568.62 923.14 568.23
  Q 996.77 498.97 1067.53 426.78
  Q 1071.12 423.12 1073.77 420.16
  Q 1076.18 417.46 1073.45 419.85
  C 1065.95 426.40 1056.17 431.82 1047.77 437.25
  Q 995.05 471.30 935.94 492.48
  Q 935.76 492.55 935.58 492.51
  Q 935.41 492.48 935.31 492.46"
/>
<path stroke="#94db9b" vector-effect="non-scaling-stroke" d="
  M 935.31 492.46
  Q 961.05 324.80 969.33 155.35
  C 969.46 152.76 970.23 149.10 970.20 145.93
  Q 970.19 144.91 969.65 145.77
  Q 968.77 147.16 967.99 149.46
  C 929.28 263.71 859.34 365.71 767.67 444.42
  Q 715.96 488.82 657.43 523.87"
/>
<path stroke="#157727" vector-effect="non-scaling-stroke" d="
  M 935.31 492.46
  L 934.56 492.51"
/>
<path stroke="#4ec027" vector-effect="non-scaling-stroke" d="
  M 934.56 492.51
  Q 935.41 485.39 936.39 478.30
  C 936.63 476.57 937.33 474.43 937.47 472.43
  Q 937.69 469.10 937.90 468.00
  Q 941.10 451.20 942.73 434.19
  Q 942.82 433.16 943.26 431.51
  C 943.81 429.46 943.88 426.62 944.07 425.32
  C 946.61 407.96 948.97 389.91 950.53 372.27
  C 950.91 367.95 952.37 363.28 952.67 358.55
  Q 953.10 351.85 953.42 349.49
  C 954.77 339.74 955.15 329.88 956.52 320.10
  C 956.95 316.99 956.61 314.24 957.29 311.05
  C 957.98 307.77 957.51 304.75 958.23 301.46
  C 958.98 297.99 958.62 293.74 959.02 290.94
  C 960.65 279.42 960.70 267.88 962.04 256.34
  C 962.57 251.72 962.35 246.73 962.89 241.87
  Q 963.85 233.16 963.98 231.10
  C 965.37 209.38 966.94 187.89 968.60 154.61
  Q 968.63 154.11 968.14 154.00
  Q 967.70 153.89 967.36 154.07
  Q 966.96 154.27 966.79 155.00
  Q 966.22 157.51 964.73 161.54
  Q 948.32 206.01 927.44 246.07
  C 924.03 252.62 919.85 259.63 916.03 266.41
  C 894.98 303.74 869.40 339.12 841.67 371.76
  C 835.28 379.28 828.33 386.54 821.73 393.73
  Q 802.75 414.40 779.64 435.15
  C 749.37 462.31 716.87 487.49 682.58 509.37
  C 674.98 514.22 667.23 519.88 659.19 523.90
  Q 658.76 524.12 658.28 524.03
  L 657.43 523.87"
/>
<path stroke="#398016" vector-effect="non-scaling-stroke" d="
  M 934.56 492.51
  C 934.47 496.69 933.36 501.34 932.84 504.58
  Q 927.65 536.88 921.53 568.94"
/>
<path stroke="#4ec027" vector-effect="non-scaling-stroke" d="
  M 921.53 568.94
  Q 917.09 591.04 912.54 613.07
  C 910.88 621.11 908.09 636.26 905.38 647.78
  C 902.57 659.73 899.59 674.73 895.73 687.97
  C 892.97 697.47 891.43 705.52 889.98 714.61
  C 889.61 716.95 888.57 719.34 888.20 721.79
  C 886.38 733.90 882.99 746.02 879.45 757.74
  Q 875.36 771.27 871.45 784.85
  Q 869.79 790.62 867.92 796.32
  C 865.43 803.88 863.56 812.05 861.00 819.82
  C 857.10 831.70 853.44 843.56 849.39 855.34
  C 843.82 871.57 839.54 888.21 834.26 904.54
  Q 833.65 906.44 832.48 908.94
  Q 831.08 911.95 830.84 913.43
  C 830.25 917.22 828.24 920.88 827.34 923.76
  C 824.19 933.78 819.31 946.16 816.70 953.29
  Q 810.31 970.75 802.98 989.51
  A 1.00 1.00 0.0 0 1 801.74 990.09
  Q 800.97 989.83 800.47 988.87
  Q 799.99 987.96 799.54 987.53
  Q 768.89 958.71 745.06 938.69
  Q 719.95 917.59 710.53 910.23
  Q 660.27 870.90 606.51 836.52
  Q 603.22 834.41 599.68 832.90"
/>
<path stroke="#398016" vector-effect="non-scaling-stroke" d="
  M 599.68 832.90
  Q 481.64 759.21 350.28 713.33"
/>
<path stroke="#4ec027" vector-effect="non-scaling-stroke" d="
  M 350.28 713.33
  C 347.14 710.44 337.10 708.07 332.77 706.56
  C 322.47 702.96 312.52 700.10 300.72 696.35
  Q 250.41 680.36 184.05 666.26
  C 182.88 666.01 182.00 666.07 180.74 665.98
  Q 179.59 665.90 180.64 665.44
  C 186.38 662.92 194.78 663.77 200.81 663.32
  C 230.65 661.08 261.71 657.45 286.72 653.83
  C 293.25 652.89 299.46 651.56 306.25 650.71
  Q 315.70 649.53 326.80 645.73"
/>
<path stroke="#398016" vector-effect="non-scaling-stroke" d="
  M 326.80 645.73
  C 432.37 625.56 533.89 591.26 628.51 540.04
  Q 640.29 533.66 644.41 531.20
  C 645.38 530.62 646.06 529.49 647.70 529.33
  Q 648.21 529.28 648.56 528.92
  Q 650.96 526.53 654.27 525.97
  Q 654.71 525.90 654.98 525.72
  Q 655.57 525.34 655.43 525.07"
/>
<path stroke="#157727" vector-effect="non-scaling-stroke" d="
  M 922.02 569.75
  L 921.53 568.94"
/>
<path stroke="#157727" vector-effect="non-scaling-stroke" d="
  M 599.46 833.10
  Q 599.89 832.59 599.68 832.90"
/>
<path stroke="#157727" vector-effect="non-scaling-stroke" d="
  M 633.47 523.12
  L 639.01 523.72"
/>
<path stroke="#157727" vector-effect="non-scaling-stroke" d="
  M 326.80 645.73
  L 326.27 645.79"
/>
<path stroke="#157727" vector-effect="non-scaling-stroke" d="
  M 350.28 713.33
  L 349.97 713.68"
/>
<path stroke="#157727" vector-effect="non-scaling-stroke" d="
  M 109.75 291.92
  Q 109.13 292.70 109.01 293.47"
/>
<path stroke="#94db9b" vector-effect="non-scaling-stroke" d="
  M 522.16 464.01
  L 527.49 465.39"
/>
<path stroke="#809b8b" vector-effect="non-scaling-stroke" d="
  M 527.49 465.39
  C 624.60 485.81 701.64 395.21 682.04 302.46
  C 670.24 246.61 625.38 202.83 567.96 196.23
  C 532.85 192.19 496.98 204.10 470.82 227.08
  C 395.31 293.41 413.32 417.65 505.72 458.54
  Q 509.16 460.07 522.16 464.01"
/>
<path stroke="#157727" vector-effect="non-scaling-stroke" d="
  M 527.49 465.39
  Q 525.98 463.90 522.16 464.01"
/>
<path stroke="#94db9b" vector-effect="non-scaling-stroke" d="
  M 730.66 1037.38
  L 730.33 1037.71
  Q 729.51 1038.53 730.67 1038.52
  L 783.96 1038.39
  Q 784.58 1038.39 784.52 1037.77
  Q 784.50 1037.60 784.50 1037.46
  Q 784.48 1036.85 785.09 1036.81
  C 881.14 1031.60 973.06 999.43 1061.60 963.85
  A 0.97 0.97 0.0 0 0 1062.01 962.36
  C 1057.45 956.37 1053.67 945.97 1043.81 949.24
  Q 1026.69 954.92 1009.68 960.91
  Q 1009.31 961.04 1009.21 961.30
  Q 1009.08 961.66 1008.70 961.76
  C 1005.87 962.48 1003.47 962.98 1000.71 964.36
  Q 996.77 966.33 992.43 967.27
  A 1.50 1.49 13.5 0 0 991.59 967.78
  Q 991.11 968.36 990.55 968.54
  C 986.64 969.78 982.78 971.53 979.09 972.67
  C 968.52 975.92 957.38 979.85 947.45 982.53
  C 884.26 999.58 817.11 1006.23 753.18 1002.50
  Q 691.78 998.91 632.76 981.71
  Q 593.59 970.30 554.95 948.86
  C 549.43 945.80 543.78 939.92 536.93 940.92
  Q 501.25 946.11 467.60 955.28
  C 465.31 955.91 461.45 956.06 458.45 957.81
  A 0.62 0.61 43.6 0 0 458.48 958.89
  Q 486.68 973.36 515.11 987.79
  Q 523.10 991.84 530.92 994.62
  C 585.94 1014.19 642.88 1028.46 701.00 1034.70
  Q 714.99 1036.20 730.34 1036.58
  A 0.47 0.47 0.0 0 1 730.66 1037.38"
/>
</g>
<path fill="#ffffff" d="
  M 346.11 716.60
  Q 280.94 694.09 213.80 678.36
  C 207.36 676.85 200.17 674.95 193.43 673.77
  C 186.57 672.56 180.29 670.64 173.50 669.95
  C 168.40 669.43 163.10 667.22 165.52 660.75
  C 165.89 659.76 167.62 658.97 168.78 658.99
  Q 193.02 659.44 217.10 656.56
  C 225.62 655.54 234.00 655.15 242.76 654.08
  Q 287.61 648.60 320.28 642.80
  Q 320.88 642.70 320.73 642.11
  Q 320.30 640.50 319.27 637.95
  Q 283.09 548.25 233.27 466.96
  C 227.34 457.28 221.70 447.50 216.45 439.39
  Q 176.94 378.28 127.86 320.65
  Q 114.17 304.57 105.47 295.25
  C 103.82 293.48 101.68 292.44 102.09 289.51
  C 102.92 283.64 109.95 283.55 111.99 289.00
  A 1.27 1.26 -87.7 0 0 112.63 289.70
  C 114.79 290.74 116.67 292.69 118.03 293.73
  C 190.47 348.84 270.04 398.25 351.23 435.73
  C 361.85 440.63 371.46 446.02 381.70 449.32
  Q 382.17 449.47 382.56 449.77
  Q 383.30 450.33 385.31 451.18
  Q 435.40 472.44 489.92 488.86
  C 500.13 491.93 507.94 494.23 518.76 496.97
  Q 566.45 509.05 607.02 515.43
  C 609.24 515.78 612.39 515.84 614.97 516.46
  C 617.64 517.10 620.25 516.98 623.24 517.75
  C 627.67 518.89 633.76 518.81 639.27 519.75
  C 642.13 520.24 644.64 519.81 647.51 520.53
  Q 650.75 521.34 652.74 520.89
  Q 655.94 520.18 655.97 520.16
  C 697.22 495.61 735.84 467.37 771.75 435.50
  Q 780.95 427.34 785.75 422.34
  C 787.31 420.71 789.77 419.26 791.91 417.16
  Q 805.97 403.31 819.77 389.21
  Q 820.11 388.87 820.23 388.40
  Q 820.44 387.58 821.03 387.04
  C 826.07 382.44 831.11 376.25 834.70 372.20
  C 882.53 318.18 921.04 255.82 948.65 189.71
  C 951.59 182.68 954.09 175.45 956.67 168.20
  Q 961.25 155.34 965.87 142.50
  Q 966.76 140.03 968.20 139.33
  C 970.14 138.38 973.56 139.28 973.87 141.93
  C 974.40 146.57 973.28 151.79 973.17 155.36
  C 972.61 174.69 970.76 194.81 969.95 213.25
  Q 969.87 214.98 969.59 216.44
  C 968.83 220.33 969.27 224.71 968.89 228.72
  C 967.77 240.41 967.15 251.94 966.01 265.00
  Q 961.18 320.30 956.75 364.56
  C 953.55 396.46 948.92 428.24 944.49 460.00
  Q 942.65 473.16 940.30 486.24
  Q 940.21 486.74 940.68 486.56
  Q 966.50 476.65 991.37 464.70
  Q 991.72 464.53 994.31 462.89
  C 995.64 462.04 997.34 461.71 998.61 461.06
  Q 1023.13 448.50 1046.22 433.50
  C 1047.82 432.46 1048.83 431.06 1050.52 430.22
  C 1054.15 428.42 1056.94 425.56 1060.34 423.81
  C 1063.21 422.32 1065.75 421.43 1068.09 419.02
  C 1069.90 417.15 1072.15 414.23 1074.76 413.92
  C 1078.96 413.42 1082.08 417.78 1078.86 421.00
  Q 1065.79 434.09 1052.72 447.18
  C 1051.83 448.07 1051.69 449.19 1050.84 450.04
  Q 1033.98 466.89 1017.13 483.75
  C 1016.45 484.43 1015.39 484.68 1014.74 485.32
  Q 995.19 504.57 975.84 524.03
  A 1.81 1.78 -75.5 0 1 975.09 524.48
  Q 974.42 524.67 973.79 525.29
  Q 967.94 530.95 962.18 536.69
  C 954.13 544.74 944.74 552.90 936.40 561.47
  C 932.45 565.52 925.95 568.41 925.13 574.56
  C 923.93 583.54 921.65 592.57 919.91 601.48
  Q 915.64 623.41 903.54 677.51
  Q 900.97 688.99 899.77 693.32
  Q 896.05 706.78 895.59 710.82
  C 894.81 717.66 892.32 725.60 891.20 730.50
  C 890.11 735.21 889.13 739.94 887.85 744.54
  Q 871.03 805.07 861.96 832.24
  Q 856.85 847.54 854.67 855.28
  C 854.35 856.41 853.64 857.38 853.23 858.74
  Q 846.33 881.58 833.69 921.23
  Q 827.21 941.54 808.73 988.03
  C 806.80 992.87 804.19 998.64 798.49 993.15
  C 764.52 960.44 726.66 928.63 688.29 899.18
  Q 666.94 882.80 644.68 867.68
  Q 644.62 867.64 641.38 865.19
  C 639.46 863.75 637.43 862.99 635.62 861.49
  C 631.14 857.79 625.53 855.15 620.81 851.79
  C 614.02 846.95 606.80 842.80 599.91 838.08
  Q 599.50 837.80 599.10 838.08
  Q 521.43 891.29 439.26 937.21
  Q 428.20 943.39 416.92 949.15
  Q 416.25 949.49 415.81 950.09
  Q 415.51 950.49 415.03 950.61
  C 412.27 951.26 409.95 953.09 408.12 954.04
  C 404.84 955.74 401.64 957.24 398.53 959.26
  C 395.73 961.07 390.99 960.19 390.96 955.92
  Q 390.94 952.74 390.48 949.61
  C 389.75 944.58 390.25 939.78 389.52 934.80
  Q 389.11 932.00 389.08 928.17
  C 389.06 924.49 388.10 921.11 388.00 917.60
  C 387.90 913.51 387.08 908.62 386.77 905.46
  Q 385.90 896.77 384.28 884.75
  Q 376.40 826.43 362.47 772.51
  Q 356.43 749.16 346.69 717.21
  Q 346.56 716.76 346.11 716.60
  Z
  M 657.43 523.87
  L 655.43 525.07
  L 639.01 523.72
  Q 636.11 522.78 633.47 523.12
  C 445.66 499.90 271.95 415.08 122.20 301.79
  Q 113.98 295.57 109.75 291.92
  Q 108.34 291.40 107.97 290.33
  A 0.75 0.73 55.8 0 1 108.09 289.63
  L 109.11 288.35
  A 0.92 0.92 0.0 0 0 107.72 287.14
  Q 104.55 290.49 109.01 293.47
  Q 114.38 299.12 116.97 302.04
  C 206.35 402.96 277.05 519.53 326.16 645.04
  Q 326.25 645.28 326.27 645.79
  Q 322.48 646.66 313.24 648.22
  Q 253.94 658.26 197.24 662.38
  Q 183.76 663.35 170.02 663.55
  A 0.46 0.45 59.5 0 0 169.80 664.40
  C 172.78 666.12 176.49 666.16 179.06 666.69
  Q 266.04 684.68 349.97 713.68
  Q 350.47 714.68 350.73 715.50
  Q 387.85 832.82 395.00 954.93
  Q 395.08 956.40 396.38 955.71
  Q 501.36 900.55 599.13 833.16
  Q 599.53 832.88 599.46 833.10
  Q 616.35 844.04 633.07 855.25
  Q 723.47 915.88 801.67 990.88
  A 0.99 0.99 0.0 0 0 803.27 990.52
  Q 817.76 953.60 830.94 916.18
  C 837.70 896.97 843.14 877.28 849.50 857.92
  Q 867.03 804.62 882.11 750.58
  Q 889.70 723.38 891.02 714.76
  C 893.08 701.29 897.99 684.47 900.07 675.32
  Q 912.03 622.74 922.02 569.75
  C 922.47 569.29 922.73 568.62 923.14 568.23
  Q 996.77 498.97 1067.53 426.78
  Q 1071.12 423.12 1073.77 420.16
  Q 1076.18 417.46 1073.45 419.85
  C 1065.95 426.40 1056.17 431.82 1047.77 437.25
  Q 995.05 471.30 935.94 492.48
  Q 935.76 492.55 935.58 492.51
  Q 935.41 492.48 935.31 492.46
  Q 961.05 324.80 969.33 155.35
  C 969.46 152.76 970.23 149.10 970.20 145.93
  Q 970.19 144.91 969.65 145.77
  Q 968.77 147.16 967.99 149.46
  C 929.28 263.71 859.34 365.71 767.67 444.42
  Q 715.96 488.82 657.43 523.87
  Z"
/>
<path fill="#29b737" d="
  M 935.31 492.46
  L 934.56 492.51
  Q 935.41 485.39 936.39 478.30
  C 936.63 476.57 937.33 474.43 937.47 472.43
  Q 937.69 469.10 937.90 468.00
  Q 941.10 451.20 942.73 434.19
  Q 942.82 433.16 943.26 431.51
  C 943.81 429.46 943.88 426.62 944.07 425.32
  C 946.61 407.96 948.97 389.91 950.53 372.27
  C 950.91 367.95 952.37 363.28 952.67 358.55
  Q 953.10 351.85 953.42 349.49
  C 954.77 339.74 955.15 329.88 956.52 320.10
  C 956.95 316.99 956.61 314.24 957.29 311.05
  C 957.98 307.77 957.51 304.75 958.23 301.46
  C 958.98 297.99 958.62 293.74 959.02 290.94
  C 960.65 279.42 960.70 267.88 962.04 256.34
  C 962.57 251.72 962.35 246.73 962.89 241.87
  Q 963.85 233.16 963.98 231.10
  C 965.37 209.38 966.94 187.89 968.60 154.61
  Q 968.63 154.11 968.14 154.00
  Q 967.70 153.89 967.36 154.07
  Q 966.96 154.27 966.79 155.00
  Q 966.22 157.51 964.73 161.54
  Q 948.32 206.01 927.44 246.07
  C 924.03 252.62 919.85 259.63 916.03 266.41
  C 894.98 303.74 869.40 339.12 841.67 371.76
  C 835.28 379.28 828.33 386.54 821.73 393.73
  Q 802.75 414.40 779.64 435.15
  C 749.37 462.31 716.87 487.49 682.58 509.37
  C 674.98 514.22 667.23 519.88 659.19 523.90
  Q 658.76 524.12 658.28 524.03
  L 657.43 523.87
  Q 715.96 488.82 767.67 444.42
  C 859.34 365.71 929.28 263.71 967.99 149.46
  Q 968.77 147.16 969.65 145.77
  Q 970.19 144.91 970.20 145.93
  C 970.23 149.10 969.46 152.76 969.33 155.35
  Q 961.05 324.80 935.31 492.46
  Z"
/>
<path fill="#72c816" d="
  M 934.56 492.51
  C 934.47 496.69 933.36 501.34 932.84 504.58
  Q 927.65 536.88 921.53 568.94
  Q 917.09 591.04 912.54 613.07
  C 910.88 621.11 908.09 636.26 905.38 647.78
  C 902.57 659.73 899.59 674.73 895.73 687.97
  C 892.97 697.47 891.43 705.52 889.98 714.61
  C 889.61 716.95 888.57 719.34 888.20 721.79
  C 886.38 733.90 882.99 746.02 879.45 757.74
  Q 875.36 771.27 871.45 784.85
  Q 869.79 790.62 867.92 796.32
  C 865.43 803.88 863.56 812.05 861.00 819.82
  C 857.10 831.70 853.44 843.56 849.39 855.34
  C 843.82 871.57 839.54 888.21 834.26 904.54
  Q 833.65 906.44 832.48 908.94
  Q 831.08 911.95 830.84 913.43
  C 830.25 917.22 828.24 920.88 827.34 923.76
  C 824.19 933.78 819.31 946.16 816.70 953.29
  Q 810.31 970.75 802.98 989.51
  A 1.00 1.00 0.0 0 1 801.74 990.09
  Q 800.97 989.83 800.47 988.87
  Q 799.99 987.96 799.54 987.53
  Q 768.89 958.71 745.06 938.69
  Q 719.95 917.59 710.53 910.23
  Q 660.27 870.90 606.51 836.52
  Q 603.22 834.41 599.68 832.90
  Q 481.64 759.21 350.28 713.33
  C 347.14 710.44 337.10 708.07 332.77 706.56
  C 322.47 702.96 312.52 700.10 300.72 696.35
  Q 250.41 680.36 184.05 666.26
  C 182.88 666.01 182.00 666.07 180.74 665.98
  Q 179.59 665.90 180.64 665.44
  C 186.38 662.92 194.78 663.77 200.81 663.32
  C 230.65 661.08 261.71 657.45 286.72 653.83
  C 293.25 652.89 299.46 651.56 306.25 650.71
  Q 315.70 649.53 326.80 645.73
  C 432.37 625.56 533.89 591.26 628.51 540.04
  Q 640.29 533.66 644.41 531.20
  C 645.38 530.62 646.06 529.49 647.70 529.33
  Q 648.21 529.28 648.56 528.92
  Q 650.96 526.53 654.27 525.97
  Q 654.71 525.90 654.98 525.72
  Q 655.57 525.34 655.43 525.07
  L 657.43 523.87
  L 658.28 524.03
  Q 658.76 524.12 659.19 523.90
  C 667.23 519.88 674.98 514.22 682.58 509.37
  C 716.87 487.49 749.37 462.31 779.64 435.15
  Q 802.75 414.40 821.73 393.73
  C 828.33 386.54 835.28 379.28 841.67 371.76
  C 869.40 339.12 894.98 303.74 916.03 266.41
  C 919.85 259.63 924.03 252.62 927.44 246.07
  Q 948.32 206.01 964.73 161.54
  Q 966.22 157.51 966.79 155.00
  Q 966.96 154.27 967.36 154.07
  Q 967.70 153.89 968.14 154.00
  Q 968.63 154.11 968.60 154.61
  C 966.94 187.89 965.37 209.38 963.98 231.10
  Q 963.85 233.16 962.89 241.87
  C 962.35 246.73 962.57 251.72 962.04 256.34
  C 960.70 267.88 960.65 279.42 959.02 290.94
  C 958.62 293.74 958.98 297.99 958.23 301.46
  C 957.51 304.75 957.98 307.77 957.29 311.05
  C 956.61 314.24 956.95 316.99 956.52 320.10
  C 955.15 329.88 954.77 339.74 953.42 349.49
  Q 953.10 351.85 952.67 358.55
  C 952.37 363.28 950.91 367.95 950.53 372.27
  C 948.97 389.91 946.61 407.96 944.07 425.32
  C 943.88 426.62 943.81 429.46 943.26 431.51
  Q 942.82 433.16 942.73 434.19
  Q 941.10 451.20 937.90 468.00
  Q 937.69 469.10 937.47 472.43
  C 937.33 474.43 936.63 476.57 936.39 478.30
  Q 935.41 485.39 934.56 492.51
  Z"
/>
<path fill="#ffffff" d="
  M 468.15 439.76
  C 444.85 419.50 428.99 390.82 422.75 361.11
  C 406.11 281.73 460.31 198.58 544.11 191.90
  C 546.70 191.69 550.43 191.98 553.75 191.00
  Q 554.64 190.74 556.29 191.16
  Q 557.74 191.53 558.77 191.57
  C 621.95 193.96 672.24 240.27 686.13 300.72
  C 686.97 304.37 687.51 309.82 688.42 314.31
  C 689.82 321.17 689.00 329.69 688.99 336.76
  Q 688.98 346.50 687.84 353.66
  C 681.19 395.53 657.05 431.74 621.14 454.20
  C 599.95 467.46 574.75 473.56 549.78 473.02
  Q 548.27 472.98 543.45 472.25
  C 540.50 471.81 537.73 472.19 534.90 471.56
  Q 528.46 470.11 521.99 468.96
  Q 520.74 468.73 518.54 467.75
  C 516.94 467.05 515.14 466.88 513.73 466.42
  Q 489.69 458.58 470.70 441.82
  A 1.07 1.02 69.4 0 0 470.20 441.58
  Q 469.21 441.42 468.75 440.52
  Q 468.52 440.09 468.15 439.76
  Z
  M 522.16 464.01
  L 527.49 465.39
  C 624.60 485.81 701.64 395.21 682.04 302.46
  C 670.24 246.61 625.38 202.83 567.96 196.23
  C 532.85 192.19 496.98 204.10 470.82 227.08
  C 395.31 293.41 413.32 417.65 505.72 458.54
  Q 509.16 460.07 522.16 464.01
  Z"
/>
<path fill="#003716" d="
  M 527.49 465.39
  Q 525.98 463.90 522.16 464.01
  Q 509.16 460.07 505.72 458.54
  C 413.32 417.65 395.31 293.41 470.82 227.08
  C 496.98 204.10 532.85 192.19 567.96 196.23
  C 625.38 202.83 670.24 246.61 682.04 302.46
  C 701.64 395.21 624.60 485.81 527.49 465.39
  Z"
/>
<path fill="#29b737" d="
  M 109.75 291.92
  Q 109.13 292.70 109.01 293.47
  Q 104.55 290.49 107.72 287.14
  A 0.92 0.92 0.0 0 1 109.11 288.35
  L 108.09 289.63
  A 0.75 0.73 55.8 0 0 107.97 290.33
  Q 108.34 291.40 109.75 291.92
  Z"
/>
<path fill="#003716" d="
  M 109.75 291.92
  Q 113.98 295.57 122.20 301.79
  C 271.95 415.08 445.66 499.90 633.47 523.12
  L 639.01 523.72
  L 655.43 525.07
  Q 655.57 525.34 654.98 525.72
  Q 654.71 525.90 654.27 525.97
  Q 650.96 526.53 648.56 528.92
  Q 648.21 529.28 647.70 529.33
  C 646.06 529.49 645.38 530.62 644.41 531.20
  Q 640.29 533.66 628.51 540.04
  C 533.89 591.26 432.37 625.56 326.80 645.73
  L 326.27 645.79
  Q 326.25 645.28 326.16 645.04
  C 277.05 519.53 206.35 402.96 116.97 302.04
  Q 114.38 299.12 109.01 293.47
  Q 109.13 292.70 109.75 291.92
  Z"
/>
<path fill="#003716" d="
  M 922.02 569.75
  L 921.53 568.94
  Q 927.65 536.88 932.84 504.58
  C 933.36 501.34 934.47 496.69 934.56 492.51
  L 935.31 492.46
  Q 935.41 492.48 935.58 492.51
  Q 935.76 492.55 935.94 492.48
  Q 995.05 471.30 1047.77 437.25
  C 1056.17 431.82 1065.95 426.40 1073.45 419.85
  Q 1076.18 417.46 1073.77 420.16
  Q 1071.12 423.12 1067.53 426.78
  Q 996.77 498.97 923.14 568.23
  C 922.73 568.62 922.47 569.29 922.02 569.75
  Z"
/>
<path fill="#29b737" d="
  M 522.16 464.01
  Q 525.98 463.90 527.49 465.39
  L 522.16 464.01
  Z"
/>
<path fill="#29b737" d="
  M 633.47 523.12
  Q 636.11 522.78 639.01 523.72
  L 633.47 523.12
  Z"
/>
<path fill="#29b737" d="
  M 921.53 568.94
  L 922.02 569.75
  Q 912.03 622.74 900.07 675.32
  C 897.99 684.47 893.08 701.29 891.02 714.76
  Q 889.70 723.38 882.11 750.58
  Q 867.03 804.62 849.50 857.92
  C 843.14 877.28 837.70 896.97 830.94 916.18
  Q 817.76 953.60 803.27 990.52
  A 0.99 0.99 0.0 0 1 801.67 990.88
  Q 723.47 915.88 633.07 855.25
  Q 616.35 844.04 599.46 833.10
  Q 599.89 832.59 599.68 832.90
  Q 603.22 834.41 606.51 836.52
  Q 660.27 870.90 710.53 910.23
  Q 719.95 917.59 745.06 938.69
  Q 768.89 958.71 799.54 987.53
  Q 799.99 987.96 800.47 988.87
  Q 800.97 989.83 801.74 990.09
  A 1.00 1.00 0.0 0 0 802.98 989.51
  Q 810.31 970.75 816.70 953.29
  C 819.31 946.16 824.19 933.78 827.34 923.76
  C 828.24 920.88 830.25 917.22 830.84 913.43
  Q 831.08 911.95 832.48 908.94
  Q 833.65 906.44 834.26 904.54
  C 839.54 888.21 843.82 871.57 849.39 855.34
  C 853.44 843.56 857.10 831.70 861.00 819.82
  C 863.56 812.05 865.43 803.88 867.92 796.32
  Q 869.79 790.62 871.45 784.85
  Q 875.36 771.27 879.45 757.74
  C 882.99 746.02 886.38 733.90 888.20 721.79
  C 888.57 719.34 889.61 716.95 889.98 714.61
  C 891.43 705.52 892.97 697.47 895.73 687.97
  C 899.59 674.73 902.57 659.73 905.38 647.78
  C 908.09 636.26 910.88 621.11 912.54 613.07
  Q 917.09 591.04 921.53 568.94
  Z"
/>
<path fill="#29b737" d="
  M 326.27 645.79
  L 326.80 645.73
  Q 315.70 649.53 306.25 650.71
  C 299.46 651.56 293.25 652.89 286.72 653.83
  C 261.71 657.45 230.65 661.08 200.81 663.32
  C 194.78 663.77 186.38 662.92 180.64 665.44
  Q 179.59 665.90 180.74 665.98
  C 182.00 666.07 182.88 666.01 184.05 666.26
  Q 250.41 680.36 300.72 696.35
  C 312.52 700.10 322.47 702.96 332.77 706.56
  C 337.10 708.07 347.14 710.44 350.28 713.33
  L 349.97 713.68
  Q 266.04 684.68 179.06 666.69
  C 176.49 666.16 172.78 666.12 169.80 664.40
  A 0.46 0.45 59.5 0 1 170.02 663.55
  Q 183.76 663.35 197.24 662.38
  Q 253.94 658.26 313.24 648.22
  Q 322.48 646.66 326.27 645.79
  Z"
/>
<path fill="#003716" d="
  M 350.28 713.33
  Q 481.64 759.21 599.68 832.90
  Q 599.89 832.59 599.46 833.10
  Q 599.53 832.88 599.13 833.16
  Q 501.36 900.55 396.38 955.71
  Q 395.08 956.40 395.00 954.93
  Q 387.85 832.82 350.73 715.50
  Q 350.47 714.68 349.97 713.68
  L 350.28 713.33
  Z"
/>
<path fill="#ffffff" d="
  M 454.44 960.54
  C 452.57 956.95 455.07 954.02 458.70 953.08
  Q 482.08 947.00 505.77 942.06
  Q 527.12 937.62 538.49 936.75
  C 545.59 936.21 552.32 943.04 559.11 946.41
  Q 563.85 948.77 568.34 951.58
  Q 568.75 951.84 569.23 951.88
  Q 571.07 952.06 572.30 953.41
  Q 572.66 953.80 573.15 953.99
  Q 578.26 955.95 583.15 958.40
  C 584.17 958.92 586.16 959.05 587.31 960.44
  A 1.39 1.38 -14.7 0 0 588.12 960.91
  C 591.27 961.44 594.34 963.38 596.40 964.20
  C 602.97 966.81 609.39 969.52 616.18 971.54
  C 620.09 972.71 622.99 974.57 627.53 975.17
  A 1.97 1.93 -22.1 0 1 628.43 975.54
  C 630.21 976.91 632.20 976.89 633.76 977.36
  C 689.54 993.99 747.58 1000.31 805.74 998.90
  Q 807.36 998.86 814.83 998.12
  C 818.85 997.73 823.47 998.09 827.06 997.85
  Q 861.48 995.55 895.48 989.65
  Q 945.17 981.03 985.20 965.98
  Q 1022.48 951.96 1040.62 945.90
  C 1042.76 945.18 1045.23 944.77 1047.53 943.95
  A 1.45 1.43 45.3 0 1 1048.53 943.96
  C 1050.68 944.74 1052.77 945.01 1054.48 946.63
  C 1057.34 949.35 1059.47 951.41 1061.80 955.09
  C 1064.37 959.13 1067.95 961.10 1065.29 966.54
  Q 1065.06 967.01 1064.56 967.20
  C 1022.66 983.11 978.13 1000.44 938.19 1012.45
  Q 904.76 1022.50 878.75 1028.00
  Q 871.54 1029.53 867.96 1030.54
  Q 866.83 1030.86 864.52 1031.00
  C 862.84 1031.10 861.50 1031.88 859.89 1031.95
  C 855.61 1032.14 851.91 1033.81 847.75 1033.92
  C 845.78 1033.97 844.13 1034.73 842.38 1034.88
  C 837.43 1035.27 832.77 1036.81 827.84 1036.93
  C 825.23 1036.99 823.24 1038.04 820.69 1037.96
  C 816.86 1037.85 813.19 1038.71 809.53 1038.93
  C 806.09 1039.13 802.73 1040.01 799.50 1040.01
  Q 796.89 1040.01 794.27 1039.99
  A 1.07 1.06 -70.6 0 0 793.44 1040.39
  Q 792.27 1041.86 791.19 1041.89
  Q 766.18 1042.74 722.81 1041.90
  Q 721.86 1041.88 720.51 1040.38
  A 1.15 1.13 -20.1 0 0 719.68 1040.00
  C 715.54 1039.98 712.40 1040.13 707.90 1039.35
  C 701.56 1038.23 694.44 1038.86 688.33 1037.36
  C 685.61 1036.69 682.92 1037.17 680.27 1036.60
  Q 674.21 1035.30 662.76 1033.71
  Q 650.48 1032.00 618.25 1024.74
  Q 577.61 1015.57 530.53 998.65
  C 514.20 992.78 495.32 982.42 482.77 975.71
  Q 469.06 968.38 458.25 963.58
  Q 455.34 962.28 454.44 960.54
  Z
  M 730.66 1037.38
  L 730.33 1037.71
  Q 729.51 1038.53 730.67 1038.52
  L 783.96 1038.39
  Q 784.58 1038.39 784.52 1037.77
  Q 784.50 1037.60 784.50 1037.46
  Q 784.48 1036.85 785.09 1036.81
  C 881.14 1031.60 973.06 999.43 1061.60 963.85
  A 0.97 0.97 0.0 0 0 1062.01 962.36
  C 1057.45 956.37 1053.67 945.97 1043.81 949.24
  Q 1026.69 954.92 1009.68 960.91
  Q 1009.31 961.04 1009.21 961.30
  Q 1009.08 961.66 1008.70 961.76
  C 1005.87 962.48 1003.47 962.98 1000.71 964.36
  Q 996.77 966.33 992.43 967.27
  A 1.50 1.49 13.5 0 0 991.59 967.78
  Q 991.11 968.36 990.55 968.54
  C 986.64 969.78 982.78 971.53 979.09 972.67
  C 968.52 975.92 957.38 979.85 947.45 982.53
  C 884.26 999.58 817.11 1006.23 753.18 1002.50
  Q 691.78 998.91 632.76 981.71
  Q 593.59 970.30 554.95 948.86
  C 549.43 945.80 543.78 939.92 536.93 940.92
  Q 501.25 946.11 467.60 955.28
  C 465.31 955.91 461.45 956.06 458.45 957.81
  A 0.62 0.61 43.6 0 0 458.48 958.89
  Q 486.68 973.36 515.11 987.79
  Q 523.10 991.84 530.92 994.62
  C 585.94 1014.19 642.88 1028.46 701.00 1034.70
  Q 714.99 1036.20 730.34 1036.58
  A 0.47 0.47 0.0 0 1 730.66 1037.38
  Z"
/>
<path fill="#29b737" d="
  M 730.66 1037.38
  A 0.47 0.47 0.0 0 0 730.34 1036.58
  Q 714.99 1036.20 701.00 1034.70
  C 642.88 1028.46 585.94 1014.19 530.92 994.62
  Q 523.10 991.84 515.11 987.79
  Q 486.68 973.36 458.48 958.89
  A 0.62 0.61 43.6 0 1 458.45 957.81
  C 461.45 956.06 465.31 955.91 467.60 955.28
  Q 501.25 946.11 536.93 940.92
  C 543.78 939.92 549.43 945.80 554.95 948.86
  Q 593.59 970.30 632.76 981.71
  Q 691.78 998.91 753.18 1002.50
  C 817.11 1006.23 884.26 999.58 947.45 982.53
  C 957.38 979.85 968.52 975.92 979.09 972.67
  C 982.78 971.53 986.64 969.78 990.55 968.54
  Q 991.11 968.36 991.59 967.78
  A 1.50 1.49 13.5 0 1 992.43 967.27
  Q 996.77 966.33 1000.71 964.36
  C 1003.47 962.98 1005.87 962.48 1008.70 961.76
  Q 1009.08 961.66 1009.21 961.30
  Q 1009.31 961.04 1009.68 960.91
  Q 1026.69 954.92 1043.81 949.24
  C 1053.67 945.97 1057.45 956.37 1062.01 962.36
  A 0.97 0.97 0.0 0 1 1061.60 963.85
  C 973.06 999.43 881.14 1031.60 785.09 1036.81
  Q 784.48 1036.85 784.50 1037.46
  Q 784.50 1037.60 784.52 1037.77
  Q 784.58 1038.39 783.96 1038.39
  L 730.67 1038.52
  Q 729.51 1038.53 730.33 1037.71
  L 730.66 1037.38
  Z"
/>
</svg>