<?xml version="1.0" encoding="UTF-8" standalone="no"?>
<!DOCTYPE svg PUBLIC "-//W3C//DTD SVG 1.1//EN" "http://www.w3.org/Graphics/SVG/1.1/DTD/svg11.dtd">
<svg xmlns="http://www.w3.org/2000/svg" version="1.1" viewBox="0.00 0.00 709.00 709.00" width="709.00" height="709.00">
<g stroke-width="2.00" fill="none" stroke-linecap="butt">
<path stroke="#809a85" vector-effect="non-scaling-stroke" d="
  M 400.83 315.75
  C 262.53 304.15 130.16 255.73 12.69 182.50
  C 11.04 181.47 9.25 180.72 7.49 180.01
  Q 6.93 179.78 7.26 180.28
  C 8.43 182.04 10.39 183.27 11.55 184.34
  C 73.79 241.71 125.85 310.10 162.58 386.48"
/>
<path stroke="#87e480" vector-effect="non-scaling-stroke" d="
  M 162.58 386.48
  Q 162.43 386.72 162.22 386.90
  Q 162.04 387.06 161.74 387.10
  C 124.66 392.69 87.54 396.11 50.08 397.68
  A 0.06 0.05 -41.0 0 0 50.07 397.79
  Q 115.68 408.53 179.81 426.56"
/>
<path stroke="#809a85" vector-effect="non-scaling-stroke" d="
  M 179.81 426.56
  C 197.61 472.04 209.20 520.44 212.35 569.28
  A 0.53 0.52 -13.0 0 0 213.08 569.73
  Q 288.34 537.60 359.79 497.56
  Q 360.13 497.37 360.28 497.01"
/>
<path stroke="#87e480" vector-effect="non-scaling-stroke" d="
  M 360.28 497.01
  Q 361.20 496.83 361.55 497.47
  Q 438.98 537.03 507.89 590.46
  A 0.42 0.42 0.0 0 0 508.52 590.31
  Q 519.17 568.28 528.84 545.70
  C 536.09 528.79 542.47 510.99 549.32 493.69
  C 556.56 475.38 563.74 456.26 569.33 437.40
  Q 583.30 390.20 594.62 342.28
  Q 594.74 341.75 594.98 341.22"
/>
<path stroke="#809a85" vector-effect="non-scaling-stroke" d="
  M 594.98 341.22
  Q 649.64 299.44 702.44 255.44
  A 0.05 0.05 0.0 0 0 702.38 255.35
  C 670.59 272.12 639.09 286.33 604.27 296.41"
/>
<path stroke="#87e480" vector-effect="non-scaling-stroke" d="
  M 604.27 296.41
  Q 623.36 195.13 629.43 92.31
  Q 629.46 91.82 629.27 92.27
  C 585.41 195.03 500.16 268.54 400.83 315.75"
/>
<path stroke="#087f06" vector-effect="non-scaling-stroke" d="
  M 604.27 296.41
  L 594.98 341.22"
/>
<path stroke="#087f06" vector-effect="non-scaling-stroke" d="
  M 360.28 497.01
  Q 275.29 454.19 183.74 428.02
  Q 181.64 427.42 179.81 426.56"
/>
<path stroke="#087f06" vector-effect="non-scaling-stroke" d="
  M 162.58 386.48
  Q 163.17 386.93 164.25 386.73
  Q 179.09 383.90 193.95 381.20
  Q 255.53 370.01 314.94 350.31
  C 342.52 341.17 370.27 330.20 400.83 315.75"
/>
<path stroke="#80dc90" vector-effect="non-scaling-stroke" d="
  M 625.57 583.03
  C 559.77 599.21 490.28 602.68 423.19 592.82
  C 389.84 587.91 357.49 579.35 326.87 565.32
  C 321.88 563.04 319.98 560.80 313.77 561.57
  Q 286.07 565.01 258.76 571.22
  Q 258.11 571.37 258.72 571.63
  Q 277.67 579.57 296.67 587.40
  Q 305.96 591.23 314.67 593.63
  C 390.89 614.66 466.84 624.51 544.94 612.91
  C 595.71 605.37 646.32 590.76 695.77 574.66
  Q 696.76 574.34 696.12 573.51
  C 693.51 570.16 689.79 564.70 684.74 565.99
  C 667.06 570.48 645.57 578.11 625.57 583.03"
/>
<path stroke="#809883" vector-effect="non-scaling-stroke" d="
  M 422.75 201.07
  A 94.68 80.41 0.0 0 0 328.07 120.66
  A 94.68 80.41 0.0 0 0 233.39 201.07
  A 94.68 80.41 0.0 0 0 328.07 281.48
  A 94.68 80.41 0.0 0 0 422.75 201.07"
/>
</g>
<path fill="#ffffff" d="
  M 709.00 248.75
  L 709.00 260.49
  Q 656.51 304.25 602.55 345.52
  Q 602.15 345.83 602.03 346.31
  Q 591.27 390.62 578.62 434.42
  Q 575.91 443.78 572.56 453.47
  C 562.53 482.40 554.44 502.41 545.06 526.82
  Q 532.83 558.63 517.90 589.30
  Q 517.65 589.81 518.22 589.84
  C 523.76 590.09 529.43 589.16 534.77 589.07
  Q 539.29 588.98 543.74 588.26
  C 545.78 587.92 547.74 588.09 549.81 587.89
  C 580.00 584.95 610.55 579.71 639.57 570.80
  Q 659.78 564.60 680.13 558.89
  C 690.57 555.96 694.40 559.77 701.30 566.81
  Q 703.95 569.52 704.58 571.93
  C 706.38 578.79 701.40 581.24 695.57 583.11
  C 650.62 597.53 605.36 610.66 559.24 618.68
  Q 488.93 630.92 418.01 622.67
  Q 374.35 617.60 331.86 606.52
  C 324.17 604.51 310.29 601.27 301.92 598.11
  Q 289.35 593.37 256.60 579.28
  Q 253.38 577.89 252.23 576.80
  C 249.12 573.83 249.75 568.26 252.77 565.53
  Q 254.53 563.94 258.69 563.03
  Q 286.54 556.89 314.86 553.29
  C 317.83 552.92 320.89 553.52 323.30 554.72
  Q 348.09 567.07 372.01 573.71
  Q 430.98 590.09 492.78 590.05
  A 0.46 0.46 0.0 0 0 493.05 589.23
  C 451.41 557.85 407.51 530.79 361.41 506.32
  A 1.04 1.03 -45.3 0 0 360.41 506.33
  Q 293.19 543.84 222.72 574.29
  C 218.80 575.99 214.96 578.89 210.53 577.55
  C 204.77 575.82 204.13 571.58 204.06 565.72
  C 204.01 561.29 203.30 556.70 202.81 552.27
  Q 196.00 491.42 174.14 433.85
  A 1.18 1.16 87.3 0 0 173.37 433.14
  Q 119.93 418.35 65.75 408.78
  Q 57.31 407.29 48.91 405.71
  C 43.16 404.63 37.83 400.63 41.13 394.05
  C 44.15 388.04 48.80 389.43 54.36 389.25
  C 85.49 388.28 119.69 384.89 150.26 380.67
  Q 150.82 380.60 150.57 380.09
  C 113.31 306.10 61.53 240.02 0.00 184.73
  L 0.00 170.95
  C 5.67 168.42 12.29 172.88 17.24 175.96
  C 110.19 233.64 212.49 275.81 319.99 296.79
  C 337.49 300.20 355.27 302.63 373.02 304.78
  C 376.44 305.20 380.07 305.95 383.47 306.05
  C 388.42 306.21 392.88 307.14 397.73 307.19
  Q 400.11 307.22 402.41 306.11
  C 496.01 260.71 578.31 189.64 619.88 93.17
  C 621.85 88.61 623.78 84.32 627.61 83.33
  C 631.89 82.22 636.33 84.26 637.56 88.52
  Q 638.11 90.39 637.42 95.49
  C 636.81 100.00 637.16 104.41 636.54 108.92
  C 635.93 113.32 636.05 117.90 635.59 122.17
  Q 635.29 124.93 634.97 129.00
  Q 628.98 205.66 614.62 284.52
  Q 614.53 285.02 615.01 284.86
  Q 643.71 275.52 670.95 262.45
  C 678.87 258.65 688.22 253.50 696.87 249.07
  C 701.29 246.81 704.97 245.91 709.00 248.75
  Z
  M 400.83 315.75
  C 262.53 304.15 130.16 255.73 12.69 182.50
  C 11.04 181.47 9.25 180.72 7.49 180.01
  Q 6.93 179.78 7.26 180.28
  C 8.43 182.04 10.39 183.27 11.55 184.34
  C 73.79 241.71 125.85 310.10 162.58 386.48
  Q 162.43 386.72 162.22 386.90
  Q 162.04 387.06 161.74 387.10
  C 124.66 392.69 87.54 396.11 50.08 397.68
  A 0.06 0.05 -41.0 0 0 50.07 397.79
  Q 115.68 408.53 179.81 426.56
  C 197.61 472.04 209.20 520.44 212.35 569.28
  A 0.53 0.52 -13.0 0 0 213.08 569.73
  Q 288.34 537.60 359.79 497.56
  Q 360.13 497.37 360.28 497.01
  Q 361.20 496.83 361.55 497.47
  Q 438.98 537.03 507.89 590.46
  A 0.42 0.42 0.0 0 0 508.52 590.31
  Q 519.17 568.28 528.84 545.70
  C 536.09 528.79 542.47 510.99 549.32 493.69
  C 556.56 475.38 563.74 456.26 569.33 437.40
  Q 583.30 390.20 594.62 342.28
  Q 594.74 341.75 594.98 341.22
  Q 649.64 299.44 702.44 255.44
  A 0.05 0.05 0.0 0 0 702.38 255.35
  C 670.59 272.12 639.09 286.33 604.27 296.41
  Q 623.36 195.13 629.43 92.31
  Q 629.46 91.82 629.27 92.27
  C 585.41 195.03 500.16 268.54 400.83 315.75
  Z
  M 625.57 583.03
  C 559.77 599.21 490.28 602.68 423.19 592.82
  C 389.84 587.91 357.49 579.35 326.87 565.32
  C 321.88 563.04 319.98 560.80 313.77 561.57
  Q 286.07 565.01 258.76 571.22
  Q 258.11 571.37 258.72 571.63
  Q 277.67 579.57 296.67 587.40
  Q 305.96 591.23 314.67 593.63
  C 390.89 614.66 466.84 624.51 544.94 612.91
  C 595.71 605.37 646.32 590.76 695.77 574.66
  Q 696.76 574.34 696.12 573.51
  C 693.51 570.16 689.79 564.70 684.74 565.99
  C 667.06 570.48 645.57 578.11 625.57 583.03
  Z"
/>
<path fill="#0fc900" d="
  M 604.27 296.41
  L 594.98 341.22
  Q 594.74 341.75 594.62 342.28
  Q 583.30 390.20 569.33 437.40
  C 563.74 456.26 556.56 475.38 549.32 493.69
  C 542.47 510.99 536.09 528.79 528.84 545.70
  Q 519.17 568.28 508.52 590.31
  A 0.42 0.42 0.0 0 1 507.89 590.46
  Q 438.98 537.03 361.55 497.47
  Q 361.20 496.83 360.28 497.01
  Q 275.29 454.19 183.74 428.02
  Q 181.64 427.42 179.81 426.56
  Q 115.68 408.53 50.07 397.79
  A 0.06 0.05 -41.0 0 1 50.08 397.68
  C 87.54 396.11 124.66 392.69 161.74 387.10
  Q 162.04 387.06 162.22 386.90
  Q 162.43 386.72 162.58 386.48
  Q 163.17 386.93 164.25 386.73
  Q 179.09 383.90 193.95 381.20
  Q 255.53 370.01 314.94 350.31
  C 342.52 341.17 370.27 330.20 400.83 315.75
  C 500.16 268.54 585.41 195.03 629.27 92.27
  Q 629.46 91.82 629.43 92.31
  Q 623.36 195.13 604.27 296.41
  Z"
/>
<path fill="#ffffff" d="
  M 256.59 264.68
  C 234.95 246.83 223.02 220.28 225.87 192.35
  C 226.11 190.06 226.63 185.50 227.36 182.93
  C 242.02 131.62 295.99 105.64 346.75 114.02
  C 376.53 118.93 404.50 135.18 420.09 161.67
  Q 426.46 172.49 428.72 183.26
  C 429.79 188.34 431.24 196.58 430.90 202.68
  Q 428.91 238.74 401.53 262.78
  C 360.94 298.41 296.95 297.95 256.59 264.68
  Z
  M 422.75 201.07
  A 94.68 80.41 0.0 0 0 328.07 120.66
  A 94.68 80.41 0.0 0 0 233.39 201.07
  A 94.68 80.41 0.0 0 0 328.07 281.48
  A 94.68 80.41 0.0 0 0 422.75 201.07
  Z"
/>
<ellipse fill="#003007" cx="328.07" cy="201.07" rx="94.68" ry="80.41"/>
<path fill="#00340b" d="
  M 400.83 315.75
  C 370.27 330.20 342.52 341.17 314.94 350.31
  Q 255.53 370.01 193.95 381.20
  Q 179.09 383.90 164.25 386.73
  Q 163.17 386.93 162.58 386.48
  C 125.85 310.10 73.79 241.71 11.55 184.34
  C 10.39 183.27 8.43 182.04 7.26 180.28
  Q 6.93 179.78 7.49 180.01
  C 9.25 180.72 11.04 181.47 12.69 182.50
  C 130.16 255.73 262.53 304.15 400.83 315.75
  Z"
/>
<path fill="#00340b" d="
  M 594.98 341.22
  L 604.27 296.41
  C 639.09 286.33 670.59 272.12 702.38 255.35
  A 0.05 0.05 0.0 0 1 702.44 255.44
  Q 649.64 299.44 594.98 341.22
  Z"
/>
<path fill="#00340b" d="
  M 179.81 426.56
  Q 181.64 427.42 183.74 428.02
  Q 275.29 454.19 360.28 497.01
  Q 360.13 497.37 359.79 497.56
  Q 288.34 537.60 213.08 569.73
  A 0.53 0.52 -13.0 0 1 212.35 569.28
  C 209.20 520.44 197.61 472.04 179.81 426.56
  Z"
/>
<path fill="#00b821" d="
  M 423.19 592.82
  C 490.28 602.68 559.77 599.21 625.57 583.03
  C 645.57 578.11 667.06 570.48 684.74 565.99
  C 689.79 564.70 693.51 570.16 696.12 573.51
  Q 696.76 574.34 695.77 574.66
  C 646.32 590.76 595.71 605.37 544.94 612.91
  C 466.84 624.51 390.89 614.66 314.67 593.63
  Q 305.96 591.23 296.67 587.40
  Q 277.67 579.57 258.72 571.63
  Q 258.11 571.37 258.76 571.22
  Q 286.07 565.01 313.77 561.57
  C 319.98 560.80 321.88 563.04 326.87 565.32
  C 357.49 579.35 389.84 587.91 423.19 592.82
  Z"
/>
</svg>
