<svg xmlns="http://www.w3.org/2000/svg" version="1.1" viewBox="0.00 0.00 827.00 827.00">
  <g stroke-width="2.00" fill="none" stroke-linecap="butt">
    <path stroke="#398016" vector-effect="non-scaling-stroke" d="
  M 705.21 345.45
  L 694.22 397.75" />
    <path stroke="#398016" vector-effect="non-scaling-stroke" d="
  M 420.33 579.90
  Q 412.29 575.66 404.07 571.68
  Q 310.48 526.38 210.41 498.09
  Q 210.27 498.05 210.07 498.05
  Q 209.75 498.06 209.74 497.89" />
    <path stroke="#398016" vector-effect="non-scaling-stroke" d="
  M 189.27 451.09
  C 284.70 436.78 379.15 410.00 466.46 368.66
  Q 467.05 368.38 467.45 368.07" />
  </g>
  <path fill="#72c816" d="
  M 705.21 345.45
  L 694.22 397.75
  Q 683.15 444.40 670.17 490.61
  C 657.94 534.16 640.90 576.01 624.58 618.11
  C 615.21 642.27 604.49 665.96 593.12 689.28
  A 0.29 0.29 0.0 0 1 592.68 689.38
  Q 511.87 626.39 420.33 579.90
  Q 412.29 575.66 404.07 571.68
  Q 310.48 526.38 210.41 498.09
  Q 210.27 498.05 210.07 498.05
  Q 209.75 498.06 209.74 497.89
  Q 133.95 476.47 56.20 463.98
  A 0.17 0.17 0.0 0 1 56.22 463.65
  Q 123.15 461.19 189.27 451.09
  C 284.70 436.78 379.15 410.00 466.46 368.66
  Q 467.05 368.38 467.45 368.07
  C 583.42 312.83 683.72 226.67 734.30 106.08
  A 0.15 0.15 0.0 0 1 734.59 106.14
  Q 727.62 226.76 705.21 345.45
  Z" />
  <ellipse fill="#003716" cx="382.67" cy="234.52" rx="110.68" ry="94.06" />
  <path fill="#003716" d="
  M 4.56 204.81
  Q 4.39 205.01 4.13 205.02
  Q 3.52 205.03 3.77 204.47
  Q 4.16 203.61 5.07 203.49
  A 0.52 0.52 0.0 0 1 5.55 204.31
  Q 5.18 204.82 4.56 204.81
  Z" />
  <path fill="#003716" d="
  M 467.45 368.07
  Q 467.05 368.38 466.46 368.66
  C 379.15 410.00 284.70 436.78 189.27 451.09
  C 189.33 450.30 189.16 450.18 188.90 449.64
  C 144.25 357.29 80.62 275.20 4.20 206.87
  Q 3.98 206.67 4.01 206.50
  Q 4.03 206.37 4.15 206.25
  Q 4.30 206.11 4.47 206.22
  C 143.91 294.97 302.10 354.09 467.45 368.07
  Z" />
  <path fill="#003716" d="
  M 694.22 397.75
  L 705.21 345.45
  Q 764.32 328.26 817.63 297.85
  C 818.24 297.50 824.10 294.02 824.11 294.02
  Q 824.19 294.04 824.22 294.12
  Q 824.26 294.22 824.14 294.31
  Q 760.73 347.20 695.16 397.39
  Q 694.76 397.70 694.22 397.75
  Z" />
  <path fill="#003716" d="
  M 816.77 295.06
  Q 817.39 294.34 817.60 295.27
  L 817.76 295.98
  A 0.56 0.56 0.0 0 1 816.81 296.49
  Q 816.15 295.78 816.77 295.06
  Z" />
  <path fill="#003716" d="
  M 811.91 298.63
  Q 813.10 296.61 815.64 296.75
  Q 816.09 296.78 815.91 297.19
  Q 814.97 299.22 812.72 299.74
  Q 811.01 300.14 811.91 298.63
  Z" />
  <path fill="#003716" d="
  M 209.74 497.89
  Q 209.75 498.06 210.07 498.05
  Q 210.27 498.05 210.41 498.09
  Q 310.48 526.38 404.07 571.68
  Q 412.29 575.66 420.33 579.90
  Q 420.15 580.31 419.78 580.51
  Q 336.27 627.34 248.16 664.99
  Q 247.56 665.25 247.52 664.59
  C 243.91 607.52 230.42 551.30 209.74 497.89
  Z" />
  <path fill="#28b737" d="
  M 393.10 664.37
  C 475.33 697.73 569.01 703.36 656.25 693.26
  C 688.25 689.56 720.28 683.36 751.06 673.79
  Q 780.95 664.49 798.49 659.95
  C 804.83 658.30 809.26 665.46 812.88 669.60
  Q 813.22 669.98 812.73 670.14
  C 762.14 686.69 710.85 701.79 658.44 711.42
  C 556.06 730.23 456.23 719.40 357.76 689.92
  Q 353.19 688.55 350.26 687.32
  Q 325.58 676.91 301.19 666.73
  Q 300.33 666.37 301.24 666.17
  Q 334.44 658.69 368.50 654.48
  Q 371.54 654.10 375.05 655.96
  Q 383.86 660.63 393.10 664.37
  Z" />
</svg>