<?xml version="1.0" encoding="UTF-8" standalone="no"?>
<!DOCTYPE svg PUBLIC "-//W3C//DTD SVG 1.1//EN" "http://www.w3.org/Graphics/SVG/1.1/DTD/svg11.dtd">
<svg xmlns="http://www.w3.org/2000/svg" version="1.1" viewBox="0.00 0.00 1181.00 1181.00">
<g stroke-width="2.00" fill="none" stroke-linecap="butt">
<path stroke="#8d94a7" vector-effect="non-scaling-stroke" d="
  M 658.97 523.57
  Q 656.39 524.08 654.94 523.94
  C 556.83 514.23 461.03 487.28 370.47 447.23
  C 278.14 406.40 190.55 353.27 111.30 291.46
  Q 109.63 290.16 108.28 289.43
  Q 107.47 288.99 108.03 289.73
  C 111.09 293.80 114.80 297.48 118.18 301.30
  Q 252.93 453.53 327.59 642.74
  C 327.86 643.44 327.73 644.09 327.74 644.84"
/>
<path stroke="#80bad9" vector-effect="non-scaling-stroke" d="
  M 327.74 644.84
  Q 253.30 658.85 177.69 662.62
  Q 177.22 662.65 176.83 662.91
  Q 175.89 663.52 174.76 663.66
  A 0.41 0.41 0.0 0 0 174.73 664.47
  Q 264.53 682.47 351.10 712.30
  Q 351.58 712.46 351.89 712.87
  L 352.53 713.74"
/>
<path stroke="#8d94a7" vector-effect="non-scaling-stroke" d="
  M 352.53 713.74
  C 377.31 791.70 392.42 872.19 397.03 953.91
  A 1.01 1.01 0.0 0 0 398.51 954.75
  Q 503.94 899.50 602.00 831.92"
/>
<path stroke="#80bad9" vector-effect="non-scaling-stroke" d="
  M 602.00 831.92
  Q 603.13 832.44 605.24 833.77
  Q 713.42 901.85 805.53 990.02
  A 0.75 0.75 0.0 0 0 806.75 989.76
  C 819.11 958.59 831.44 926.95 841.22 894.99
  C 849.84 866.83 859.16 838.88 867.70 810.70
  Q 892.24 729.73 910.34 647.07
  Q 913.86 631.00 926.08 568.49"
/>
<path stroke="#8d94a7" vector-effect="non-scaling-stroke" d="
  M 926.08 568.49
  C 975.87 521.19 1025.17 473.49 1073.33 424.53
  C 1074.21 423.64 1075.48 422.78 1076.47 421.86
  Q 1076.95 421.41 1076.72 420.80
  L 1076.55 420.32
  A 0.58 0.58 0.0 0 0 1075.64 420.07
  Q 1070.10 424.52 1064.37 428.40
  Q 1006.23 467.75 940.00 491.38"
/>
<path stroke="#80bad9" vector-effect="non-scaling-stroke" d="
  M 940.00 491.38
  C 938.90 490.46 939.73 488.96 939.88 488.00
  Q 962.93 338.29 971.89 187.07
  Q 973.14 165.94 974.36 145.02
  Q 974.39 144.45 974.04 144.90
  Q 972.66 146.68 971.81 149.15
  Q 921.79 293.62 814.83 402.57
  Q 746.31 472.37 658.97 523.57"
/>
<path stroke="#0d4f81" vector-effect="non-scaling-stroke" d="
  M 940.00 491.38
  Q 939.19 491.45 939.21 492.00
  Q 939.22 492.43 939.21 492.51
  Q 933.06 530.56 926.08 568.49"
/>
<path stroke="#0d4f81" vector-effect="non-scaling-stroke" d="
  M 602.00 831.92
  Q 601.31 831.69 600.65 831.29
  Q 484.83 759.94 356.49 714.77
  Q 354.27 713.99 353.42 713.52
  Q 353.14 713.36 352.87 713.53
  L 352.53 713.74"
/>
<path stroke="#0d4f81" vector-effect="non-scaling-stroke" d="
  M 327.74 644.84
  Q 327.85 645.05 328.04 645.15
  Q 328.20 645.22 328.44 645.18
  C 432.95 625.75 533.32 591.97 627.14 541.96
  C 629.23 540.84 631.24 540.40 633.25 538.95
  C 637.34 535.99 642.56 533.93 646.05 532.11
  C 650.84 529.61 654.24 526.19 658.26 524.85
  Q 658.69 524.71 658.86 524.29
  Q 659.01 523.89 658.97 523.57"
/>
<path stroke="#8d94a7" vector-effect="non-scaling-stroke" d="
  M 557.6262 467.1492
  A 136.43 131.15 89.8 0 0 688.2992 330.2622
  A 136.43 131.15 89.8 0 0 556.6738 194.2908
  A 136.43 131.15 89.8 0 0 426.0008 331.1778
  A 136.43 131.15 89.8 0 0 557.6262 467.1492"
/>
<path stroke="#80bad9" vector-effect="non-scaling-stroke" d="
  M 878.85 1023.73
  C 943.25 1009.78 1005.09 986.87 1066.30 962.80
  Q 1067.30 962.41 1066.69 961.52
  C 1062.34 955.16 1057.89 945.06 1048.08 948.36
  C 1030.94 954.13 1017.62 958.81 1000.46 965.45
  Q 959.34 981.34 916.08 990.09
  C 842.19 1005.03 766.07 1006.66 691.69 993.84
  C 640.87 985.08 591.27 968.67 547.42 941.60
  Q 543.67 939.28 540.06 939.79
  Q 507.10 944.45 471.05 954.04
  C 468.28 954.77 464.18 955.35 460.83 956.51
  Q 460.31 956.69 460.42 957.23
  Q 460.74 958.73 462.18 958.76
  Q 462.67 958.77 463.11 959.00
  Q 490.24 972.80 517.39 986.53
  Q 525.57 990.66 533.52 993.50
  C 604.10 1018.73 679.22 1035.55 754.00 1036.48
  Q 816.38 1037.27 878.85 1023.73"
/>
</g>
<path fill="#ffffff" d="
  M 940.87 559.82
  C 940.11 560.54 938.69 562.53 937.22 563.44
  C 933.75 565.60 929.46 569.60 929.05 572.83
  Q 928.78 575.04 928.76 575.14
  Q 918.81 627.65 910.74 663.75
  Q 894.90 734.60 872.07 810.11
  C 862.94 840.34 852.95 870.34 843.56 900.50
  Q 843.49 900.74 842.10 906.54
  C 841.42 909.35 839.95 912.26 839.20 914.39
  Q 826.10 951.49 811.70 988.09
  Q 811.67 988.16 810.97 990.86
  C 809.89 994.99 803.69 995.21 801.44 991.93
  C 799.03 988.43 794.91 985.55 792.70 983.46
  Q 773.76 965.55 747.97 943.52
  Q 738.11 935.09 734.90 932.32
  C 725.80 924.46 715.88 917.45 706.61 909.79
  Q 704.38 907.94 702.08 906.17
  Q 654.09 869.28 602.90 836.99
  A 0.85 0.84 -44.2 0 0 602.01 836.98
  Q 600.92 837.64 598.68 839.17
  Q 524.17 890.11 442.69 935.72
  C 438.11 938.29 431.49 941.57 426.04 944.81
  C 424.64 945.64 422.26 946.32 420.64 947.45
  C 417.09 949.90 412.83 951.73 408.98 953.71
  C 407.33 954.55 405.02 956.43 402.36 957.05
  A 1.91 1.84 -71.7 0 0 401.51 957.50
  C 398.90 959.95 393.22 959.90 393.04 955.19
  Q 392.56 942.33 390.00 914.50
  Q 389.73 911.49 389.43 909.63
  C 388.49 903.60 388.48 897.20 387.53 891.26
  Q 386.94 887.60 386.80 886.20
  C 385.68 874.71 383.02 859.98 381.80 852.03
  Q 380.44 843.18 378.88 834.36
  C 378.55 832.50 377.46 829.76 377.15 827.43
  C 375.68 816.31 372.16 802.66 368.25 785.50
  C 366.17 776.37 364.07 768.85 361.86 759.76
  C 360.43 753.87 358.28 747.75 356.85 742.37
  Q 353.39 729.29 349.10 716.45
  Q 348.94 715.97 348.47 715.80
  Q 337.57 711.76 326.45 708.49
  C 318.19 706.06 310.12 703.20 301.77 700.69
  C 286.34 696.05 273.50 692.66 259.71 688.52
  Q 249.75 685.53 246.57 685.15
  C 243.52 684.78 241.24 683.67 239.17 683.18
  Q 224.27 679.68 209.42 676.02
  C 200.60 673.84 190.16 672.08 180.58 669.66
  C 176.58 668.66 172.91 669.42 168.75 667.02
  C 165.41 665.09 164.97 661.46 167.95 659.11
  C 170.57 657.04 182.05 657.99 185.74 658.00
  C 192.14 658.01 199.01 657.07 205.74 656.87
  Q 209.02 656.77 214.22 656.18
  C 218.02 655.75 221.88 655.88 225.57 655.30
  C 232.54 654.20 240.52 653.66 246.54 652.90
  Q 257.29 651.53 268.06 650.31
  C 276.73 649.32 286.43 647.37 295.71 646.30
  C 300.42 645.75 304.97 644.43 309.71 644.03
  Q 314.36 643.64 318.81 642.15
  Q 319.24 642.00 319.70 642.00
  L 322.21 642.00
  Q 322.98 642.00 322.70 641.28
  Q 261.44 486.87 159.11 356.15
  C 143.61 336.35 123.22 311.50 104.56 292.31
  C 102.69 290.39 100.44 288.70 103.23 286.00
  Q 107.75 281.63 111.35 286.60
  A 1.31 1.27 -9.7 0 0 112.08 287.10
  C 113.95 287.58 114.62 288.96 115.67 289.80
  Q 124.55 296.90 133.66 303.64
  Q 163.72 325.87 204.16 352.35
  C 208.66 355.29 212.36 357.25 216.00 360.07
  C 217.69 361.38 219.71 362.19 221.35 363.35
  Q 224.53 365.60 227.95 367.46
  C 232.02 369.66 235.40 372.55 239.57 374.21
  C 240.94 374.76 241.62 375.92 242.78 376.59
  C 272.91 394.00 296.76 407.50 326.18 421.96
  Q 326.26 422.00 329.10 423.08
  C 330.60 423.65 331.69 424.70 332.89 425.33
  Q 337.35 427.69 342.03 429.50
  C 342.91 429.84 343.14 430.40 343.98 430.75
  Q 352.01 434.07 359.88 437.72
  Q 384.79 449.27 401.00 455.61
  Q 401.78 455.92 402.12 456.21
  Q 402.42 456.46 402.79 456.60
  Q 408.94 458.86 415.07 461.16
  C 416.52 461.71 419.65 463.39 422.10 463.97
  C 425.80 464.84 430.67 466.86 434.20 468.59
  C 436.55 469.74 439.15 470.11 441.23 470.88
  Q 447.75 473.29 454.32 475.55
  C 456.59 476.34 459.08 476.84 461.18 477.64
  C 469.83 480.94 475.86 482.12 482.26 484.63
  C 489.49 487.48 497.27 488.60 504.70 491.26
  C 510.99 493.52 521.86 495.38 531.96 498.54
  C 534.72 499.41 538.36 499.94 540.67 500.49
  Q 562.76 505.78 598.25 512.27
  Q 601.23 512.81 603.26 512.97
  C 607.57 513.30 611.16 514.76 615.40 515.01
  Q 617.13 515.12 620.37 515.78
  C 622.70 516.27 624.81 515.81 627.14 516.43
  Q 631.66 517.64 636.31 517.92
  C 641.54 518.24 646.79 519.51 652.34 518.86
  Q 652.83 518.80 653.25 519.07
  Q 655.99 520.78 658.52 519.28
  C 705.05 491.72 749.50 459.26 788.97 422.22
  Q 789.69 421.54 790.66 421.15
  Q 791.19 420.94 791.27 420.39
  Q 791.52 418.85 792.91 418.48
  Q 793.43 418.34 793.82 417.97
  C 804.20 408.05 813.77 397.73 823.76 387.51
  Q 837.56 373.40 852.14 355.62
  Q 927.70 263.42 967.20 150.90
  C 968.30 147.78 970.63 133.61 977.38 140.48
  Q 977.74 140.86 977.80 141.37
  C 978.54 147.70 977.31 154.92 977.22 159.83
  Q 977.06 169.46 976.93 172.25
  C 976.88 173.21 976.35 174.50 976.31 175.69
  Q 975.98 184.04 975.97 192.40
  C 975.97 193.14 975.44 193.85 975.40 194.43
  C 974.46 212.24 972.83 230.27 971.59 247.73
  Q 969.08 283.20 965.34 318.56
  Q 964.84 323.30 963.42 338.46
  C 961.94 354.18 959.83 367.94 958.01 385.54
  C 956.45 400.53 954.13 415.56 952.23 430.58
  C 950.13 447.10 947.69 462.73 945.24 478.78
  C 944.98 480.51 945.28 482.93 944.11 485.05
  A 0.44 0.44 0.0 0 0 944.18 485.56
  Q 944.27 485.65 944.37 485.74
  A 0.12 0.11 40.9 0 0 944.55 485.73
  C 944.95 485.15 945.29 484.64 946.01 484.42
  C 955.48 481.55 964.51 477.43 973.65 473.69
  C 976.42 472.55 980.50 470.81 983.64 469.29
  C 988.45 466.96 994.10 464.94 998.40 461.83
  C 999.41 461.11 1000.76 461.05 1001.74 460.55
  Q 1033.93 443.91 1064.06 423.80
  Q 1065.57 422.80 1067.01 421.03
  Q 1067.33 420.64 1067.81 420.51
  Q 1069.37 420.10 1069.61 418.42
  A 0.90 0.88 86.1 0 1 1070.24 417.68
  C 1073.50 416.68 1078.69 413.74 1079.92 419.27
  Q 1081.05 424.35 1076.90 426.62
  C 1073.83 428.31 1073.54 431.48 1070.34 432.87
  A 1.81 1.78 4.7 0 0 1069.57 433.51
  C 1067.75 436.21 1065.45 438.99 1062.66 440.71
  C 1061.74 441.27 1061.64 442.24 1060.94 442.93
  Q 1044.31 459.58 1027.65 476.20
  A 2.09 2.06 15.1 0 1 1026.73 476.72
  Q 1025.77 476.97 1025.53 477.99
  Q 1025.41 478.50 1025.03 478.86
  C 1023.29 480.53 1018.94 483.59 1018.31 485.61
  Q 1018.16 486.08 1017.71 486.27
  C 1016.92 486.61 1016.62 486.59 1015.97 487.22
  Q 997.70 505.07 979.70 523.19
  C 979.19 523.70 978.50 523.71 977.83 524.36
  Q 966.62 535.14 955.70 546.19
  C 955.19 546.71 954.26 546.87 953.63 547.50
  Q 947.32 553.73 940.87 559.82
  Z
  M 658.97 523.57
  Q 656.39 524.08 654.94 523.94
  C 556.83 514.23 461.03 487.28 370.47 447.23
  C 278.14 406.40 190.55 353.27 111.30 291.46
  Q 109.63 290.16 108.28 289.43
  Q 107.47 288.99 108.03 289.73
  C 111.09 293.80 114.80 297.48 118.18 301.30
  Q 252.93 453.53 327.59 642.74
  C 327.86 643.44 327.73 644.09 327.74 644.84
  Q 253.30 658.85 177.69 662.62
  Q 177.22 662.65 176.83 662.91
  Q 175.89 663.52 174.76 663.66
  A 0.41 0.41 0.0 0 0 174.73 664.47
  Q 264.53 682.47 351.10 712.30
  Q 351.58 712.46 351.89 712.87
  L 352.53 713.74
  C 377.31 791.70 392.42 872.19 397.03 953.91
  A 1.01 1.01 0.0 0 0 398.51 954.75
  Q 503.94 899.50 602.00 831.92
  Q 603.13 832.44 605.24 833.77
  Q 713.42 901.85 805.53 990.02
  A 0.75 0.75 0.0 0 0 806.75 989.76
  C 819.11 958.59 831.44 926.95 841.22 894.99
  C 849.84 866.83 859.16 838.88 867.70 810.70
  Q 892.24 729.73 910.34 647.07
  Q 913.86 631.00 926.08 568.49
  C 975.87 521.19 1025.17 473.49 1073.33 424.53
  C 1074.21 423.64 1075.48 422.78 1076.47 421.86
  Q 1076.95 421.41 1076.72 420.80
  L 1076.55 420.32
  A 0.58 0.58 0.0 0 0 1075.64 420.07
  Q 1070.10 424.52 1064.37 428.40
  Q 1006.23 467.75 940.00 491.38
  C 938.90 490.46 939.73 488.96 939.88 488.00
  Q 962.93 338.29 971.89 187.07
  Q 973.14 165.94 974.36 145.02
  Q 974.39 144.45 974.04 144.90
  Q 972.66 146.68 971.81 149.15
  Q 921.79 293.62 814.83 402.57
  Q 746.31 472.37 658.97 523.57
  Z"
/>
<path fill="#0075b3" d="
  M 940.00 491.38
  Q 939.19 491.45 939.21 492.00
  Q 939.22 492.43 939.21 492.51
  Q 933.06 530.56 926.08 568.49
  Q 913.86 631.00 910.34 647.07
  Q 892.24 729.73 867.70 810.70
  C 859.16 838.88 849.84 866.83 841.22 894.99
  C 831.44 926.95 819.11 958.59 806.75 989.76
  A 0.75 0.75 0.0 0 1 805.53 990.02
  Q 713.42 901.85 605.24 833.77
  Q 603.13 832.44 602.00 831.92
  Q 601.31 831.69 600.65 831.29
  Q 484.83 759.94 356.49 714.77
  Q 354.27 713.99 353.42 713.52
  Q 353.14 713.36 352.87 713.53
  L 352.53 713.74
  L 351.89 712.87
  Q 351.58 712.46 351.10 712.30
  Q 264.53 682.47 174.73 664.47
  A 0.41 0.41 0.0 0 1 174.76 663.66
  Q 175.89 663.52 176.83 662.91
  Q 177.22 662.65 177.69 662.62
  Q 253.30 658.85 327.74 644.84
  Q 327.85 645.05 328.04 645.15
  Q 328.20 645.22 328.44 645.18
  C 432.95 625.75 533.32 591.97 627.14 541.96
  C 629.23 540.84 631.24 540.40 633.25 538.95
  C 637.34 535.99 642.56 533.93 646.05 532.11
  C 650.84 529.61 654.24 526.19 658.26 524.85
  Q 658.69 524.71 658.86 524.29
  Q 659.01 523.89 658.97 523.57
  Q 746.31 472.37 814.83 402.57
  Q 921.79 293.62 971.81 149.15
  Q 972.66 146.68 974.04 144.90
  Q 974.39 144.45 974.36 145.02
  Q 973.14 165.94 971.89 187.07
  Q 962.93 338.29 939.88 488.00
  C 939.73 488.96 938.90 490.46 940.00 491.38
  Z"
/>
<path fill="#ffffff" d="
  M 458.36 235.33
  C 478.62 212.57 505.89 196.26 536.24 191.99
  C 542.46 191.11 548.89 189.95 554.96 189.96
  Q 571.44 189.97 587.51 193.69
  Q 587.62 193.71 590.53 194.02
  C 592.13 194.19 593.44 195.26 594.75 195.69
  Q 601.12 197.80 607.47 199.94
  C 609.79 200.73 611.72 202.70 614.56 203.24
  Q 615.04 203.33 615.41 203.65
  C 617.72 205.62 620.42 206.08 622.71 207.72
  C 626.57 210.47 631.04 212.82 634.49 215.42
  C 660.71 235.24 679.65 262.66 687.79 294.60
  Q 690.67 305.88 691.01 310.49
  C 691.22 313.34 691.91 316.04 691.98 318.28
  Q 692.39 330.62 691.96 342.97
  C 691.89 345.00 691.31 347.32 691.02 349.76
  Q 688.21 373.65 676.68 395.97
  Q 650.16 447.32 595.69 465.73
  C 592.74 466.73 588.48 467.17 584.96 468.93
  A 1.57 1.55 36.5 0 1 583.99 469.07
  Q 580.99 468.56 578.29 469.82
  Q 577.75 470.07 577.16 470.03
  C 573.50 469.79 569.59 470.81 566.64 470.97
  Q 551.07 471.78 544.94 470.83
  Q 540.82 470.19 538.33 470.05
  C 535.42 469.89 532.99 468.63 529.86 469.06
  Q 529.37 469.12 528.92 468.91
  C 524.95 467.06 519.78 466.06 516.77 465.05
  Q 486.98 455.05 464.70 432.89
  Q 464.60 432.79 462.63 431.33
  C 461.53 430.51 461.19 429.27 460.29 428.35
  C 439.16 406.62 426.05 376.83 422.93 346.83
  Q 417.46 294.31 446.70 249.69
  Q 449.81 244.93 458.36 235.33
  Z
  M 557.6262 467.1492
  A 136.43 131.15 89.8 0 0 688.2992 330.2622
  A 136.43 131.15 89.8 0 0 556.6738 194.2908
  A 136.43 131.15 89.8 0 0 426.0008 331.1778
  A 136.43 131.15 89.8 0 0 557.6262 467.1492
  Z"
/>
<ellipse fill="#1a294e" cx="0.00" cy="0.00" transform="translate(557.15,330.72) rotate(89.8)" rx="136.43" ry="131.15"/>
<path fill="#1a294e" d="
  M 658.97 523.57
  Q 659.01 523.89 658.86 524.29
  Q 658.69 524.71 658.26 524.85
  C 654.24 526.19 650.84 529.61 646.05 532.11
  C 642.56 533.93 637.34 535.99 633.25 538.95
  C 631.24 540.40 629.23 540.84 627.14 541.96
  C 533.32 591.97 432.95 625.75 328.44 645.18
  Q 328.20 645.22 328.04 645.15
  Q 327.85 645.05 327.74 644.84
  C 327.73 644.09 327.86 643.44 327.59 642.74
  Q 252.93 453.53 118.18 301.30
  C 114.80 297.48 111.09 293.80 108.03 289.73
  Q 107.47 288.99 108.28 289.43
  Q 109.63 290.16 111.30 291.46
  C 190.55 353.27 278.14 406.40 370.47 447.23
  C 461.03 487.28 556.83 514.23 654.94 523.94
  Q 656.39 524.08 658.97 523.57
  Z"
/>
<path fill="#1a294e" d="
  M 926.08 568.49
  Q 933.06 530.56 939.21 492.51
  Q 939.22 492.43 939.21 492.00
  Q 939.19 491.45 940.00 491.38
  Q 1006.23 467.75 1064.37 428.40
  Q 1070.10 424.52 1075.64 420.07
  A 0.58 0.58 0.0 0 1 1076.55 420.32
  L 1076.72 420.80
  Q 1076.95 421.41 1076.47 421.86
  C 1075.48 422.78 1074.21 423.64 1073.33 424.53
  C 1025.17 473.49 975.87 521.19 926.08 568.49
  Z"
/>
<path fill="#1a294e" d="
  M 602.00 831.92
  Q 503.94 899.50 398.51 954.75
  A 1.01 1.01 0.0 0 1 397.03 953.91
  C 392.42 872.19 377.31 791.70 352.53 713.74
  L 352.87 713.53
  Q 353.14 713.36 353.42 713.52
  Q 354.27 713.99 356.49 714.77
  Q 484.83 759.94 600.65 831.29
  Q 601.31 831.69 602.00 831.92
  Z"
/>
<path fill="#ffffff" d="
  M 461.37 962.78
  C 457.44 960.81 454.14 958.68 456.98 954.05
  A 1.37 1.35 7.1 0 1 457.75 953.46
  C 462.33 952.13 466.76 950.69 471.41 949.85
  C 473.03 949.56 474.43 948.51 475.91 948.19
  C 480.80 947.12 486.32 946.72 490.93 944.84
  C 492.72 944.10 494.68 944.01 496.03 943.71
  Q 514.22 939.67 537.58 936.11
  Q 544.90 934.99 550.56 938.66
  Q 561.45 945.73 573.06 951.45
  C 609.60 969.45 646.13 980.87 686.16 988.83
  C 687.26 989.05 688.39 988.91 689.56 989.17
  C 702.35 992.00 715.93 993.85 730.24 995.05
  Q 761.15 997.66 769.50 997.77
  Q 795.91 998.11 822.32 997.83
  C 827.64 997.77 833.39 996.82 838.94 996.46
  Q 854.50 995.43 870.00 993.73
  C 873.33 993.36 877.45 992.38 881.36 991.95
  Q 887.28 991.30 893.11 990.15
  C 898.90 989.01 904.93 988.33 910.76 987.05
  Q 923.62 984.23 936.50 981.50
  C 937.62 981.26 938.96 980.40 940.32 980.12
  C 951.20 977.87 958.88 975.16 967.26 972.67
  C 976.04 970.06 984.65 967.15 993.23 963.75
  C 1013.46 955.73 1029.60 950.12 1047.25 944.45
  C 1059.59 940.48 1063.28 950.55 1069.48 958.57
  Q 1071.04 960.59 1070.92 962.35
  C 1070.60 966.94 1066.77 966.00 1064.35 968.48
  Q 1063.98 968.85 1063.46 968.88
  C 1059.73 969.10 1056.40 971.31 1053.99 972.18
  C 1042.85 976.20 1031.89 980.65 1020.75 984.69
  C 1018.61 985.46 1014.24 987.44 1010.82 988.48
  Q 1008.06 989.32 1006.77 989.80
  Q 976.77 1000.91 946.20 1010.35
  C 943.87 1011.07 940.24 1011.84 937.42 1012.92
  C 933.55 1014.39 929.85 1014.80 926.11 1016.51
  C 924.82 1017.11 923.49 1016.90 922.30 1017.22
  C 913.60 1019.55 904.83 1022.28 896.02 1024.13
  Q 886.45 1026.15 876.91 1028.38
  Q 872.89 1029.32 865.47 1030.44
  Q 861.62 1031.03 857.82 1031.88
  C 850.76 1033.46 843.61 1034.02 836.54 1035.44
  Q 834.73 1035.80 830.90 1035.97
  C 828.24 1036.09 825.87 1036.90 823.35 1037.04
  Q 817.84 1037.35 809.26 1038.32
  Q 790.62 1040.42 769.21 1040.22
  Q 768.66 1040.22 768.26 1040.61
  L 767.45 1041.43
  A 1.10 1.08 -66.7 0 1 766.69 1041.74
  C 762.62 1041.76 757.47 1042.41 753.70 1040.83
  Q 752.97 1040.52 752.23 1040.49
  Q 740.97 1039.99 729.72 1040.00
  C 727.35 1040.00 724.76 1038.97 722.93 1039.03
  C 714.77 1039.29 707.01 1037.50 698.91 1037.10
  Q 697.13 1037.01 692.64 1036.26
  C 689.74 1035.78 686.97 1036.19 684.16 1035.60
  C 676.93 1034.07 669.61 1033.51 662.42 1031.88
  C 659.21 1031.15 655.63 1030.93 652.79 1030.39
  Q 615.27 1023.15 594.25 1016.98
  Q 583.96 1013.96 573.64 1011.00
  C 566.60 1008.98 557.38 1005.63 549.02 1003.54
  Q 548.54 1003.42 548.20 1003.05
  C 547.16 1001.90 545.64 1002.05 544.61 1001.73
  Q 526.93 996.15 521.93 993.58
  Q 491.75 977.99 461.37 962.78
  Z
  M 878.85 1023.73
  C 943.25 1009.78 1005.09 986.87 1066.30 962.80
  Q 1067.30 962.41 1066.69 961.52
  C 1062.34 955.16 1057.89 945.06 1048.08 948.36
  C 1030.94 954.13 1017.62 958.81 1000.46 965.45
  Q 959.34 981.34 916.08 990.09
  C 842.19 1005.03 766.07 1006.66 691.69 993.84
  C 640.87 985.08 591.27 968.67 547.42 941.60
  Q 543.67 939.28 540.06 939.79
  Q 507.10 944.45 471.05 954.04
  C 468.28 954.77 464.18 955.35 460.83 956.51
  Q 460.31 956.69 460.42 957.23
  Q 460.74 958.73 462.18 958.76
  Q 462.67 958.77 463.11 959.00
  Q 490.24 972.80 517.39 986.53
  Q 525.57 990.66 533.52 993.50
  C 604.10 1018.73 679.22 1035.55 754.00 1036.48
  Q 816.38 1037.27 878.85 1023.73
  Z"
/>
<path fill="#0075b3" d="
  M 878.85 1023.73
  Q 816.38 1037.27 754.00 1036.48
  C 679.22 1035.55 604.10 1018.73 533.52 993.50
  Q 525.57 990.66 517.39 986.53
  Q 490.24 972.80 463.11 959.00
  Q 462.67 958.77 462.18 958.76
  Q 460.74 958.73 460.42 957.23
  Q 460.31 956.69 460.83 956.51
  C 464.18 955.35 468.28 954.77 471.05 954.04
  Q 507.10 944.45 540.06 939.79
  Q 543.67 939.28 547.42 941.60
  C 591.27 968.67 640.87 985.08 691.69 993.84
  C 766.07 1006.66 842.19 1005.03 916.08 990.09
  Q 959.34 981.34 1000.46 965.45
  C 1017.62 958.81 1030.94 954.13 1048.08 948.36
  C 1057.89 945.06 1062.34 955.16 1066.69 961.52
  Q 1067.30 962.41 1066.30 962.80
  C 1005.09 986.87 943.25 1009.78 878.85 1023.73
  Z"
/>
</svg>
