<?xml version="1.0" encoding="UTF-8" standalone="no"?>
<!DOCTYPE svg PUBLIC "-//W3C//DTD SVG 1.1//EN" "http://www.w3.org/Graphics/SVG/1.1/DTD/svg11.dtd">
<svg xmlns="http://www.w3.org/2000/svg" version="1.1" viewBox="0.00 0.00 709.00 709.00" width="709.00" height="709.00">
<g stroke-width="2.00" fill="none" stroke-linecap="butt">
<path stroke="#8d94a7" vector-effect="non-scaling-stroke" d="
  M 401.99 315.76
  C 261.63 304.08 127.19 253.34 8.54 178.61
  A 0.17 0.17 0.0 0 0 8.34 178.88
  C 73.36 237.28 127.34 307.70 165.51 386.66"
/>
<path stroke="#80bad9" vector-effect="non-scaling-stroke" d="
  M 165.51 386.66
  Q 163.62 387.37 161.93 387.62
  Q 108.40 395.64 54.39 397.73
  A 0.11 0.10 48.1 0 0 54.38 397.94
  Q 118.86 408.61 181.86 426.24
  C 182.35 426.38 182.61 426.68 182.89 427.05"
/>
<path stroke="#8d94a7" vector-effect="non-scaling-stroke" d="
  M 182.89 427.05
  C 200.61 473.04 211.72 520.16 215.15 569.14
  Q 215.19 569.69 215.69 569.47
  Q 291.04 537.43 362.76 497.02"
/>
<path stroke="#80bad9" vector-effect="non-scaling-stroke" d="
  M 362.76 497.02
  Q 363.18 496.84 363.67 497.09
  Q 441.36 536.77 510.07 590.02
  A 0.76 0.75 -58.1 0 0 511.21 589.75
  C 529.36 552.02 547.58 505.68 559.18 473.19
  Q 582.08 409.05 596.78 342.55
  Q 596.92 341.95 597.25 341.49
  Q 597.76 340.78 598.01 340.60"
/>
<path stroke="#8d94a7" vector-effect="non-scaling-stroke" d="
  M 598.01 340.60
  Q 648.59 302.11 696.71 262.05
  C 697.29 261.56 698.63 260.80 699.09 260.10
  A 0.80 0.80 0.0 0 0 698.04 258.96
  Q 654.35 282.85 607.05 296.55"
/>
<path stroke="#80bad9" vector-effect="non-scaling-stroke" d="
  M 607.05 296.55
  Q 607.01 296.36 606.89 296.25
  Q 606.74 296.13 606.78 295.95
  Q 625.73 195.43 631.80 93.31
  A 0.11 0.10 58.7 0 0 631.60 93.26
  C 587.14 195.78 503.15 268.08 403.96 315.68
  Q 403.33 315.99 401.99 315.76"
/>
<path stroke="#0d4f81" vector-effect="non-scaling-stroke" d="
  M 607.05 296.55
  L 598.01 340.60"
/>
<path stroke="#0d4f81" vector-effect="non-scaling-stroke" d="
  M 362.76 497.02
  Q 276.06 453.49 182.89 427.05"
/>
<path stroke="#0d4f81" vector-effect="non-scaling-stroke" d="
  M 165.51 386.66
  C 247.15 374.24 326.57 351.55 401.47 316.59
  Q 401.75 316.46 401.87 316.28
  Q 402.04 316.03 401.99 315.76"
/>
<path stroke="#80bad9" vector-effect="non-scaling-stroke" d="
  M 261.81 571.70
  C 278.73 578.54 295.86 587.02 313.27 592.15
  C 360.57 606.09 409.09 615.18 457.55 617.41
  C 540.16 621.23 620.54 600.25 698.35 574.35
  Q 698.82 574.20 698.55 573.79
  C 696.24 570.38 691.98 564.95 687.24 566.22
  C 669.49 570.94 650.85 577.25 633.11 581.94
  C 571.11 598.33 504.83 602.27 441.57 595.18
  C 401.73 590.71 361.63 581.09 325.44 563.53
  C 321.75 561.75 320.08 561.37 316.17 561.85
  Q 288.60 565.26 261.84 571.33
  Q 261.24 571.46 261.81 571.70"
/>
<path stroke="#8d94a7" vector-effect="non-scaling-stroke" d="
  M 425.13 201.06
  A 94.49 80.24 0.0 0 0 330.64 120.82
  A 94.49 80.24 0.0 0 0 236.15 201.06
  A 94.49 80.24 0.0 0 0 330.64 281.30
  A 94.49 80.24 0.0 0 0 425.13 201.06"
/>
</g>
<path fill="#ffffff" d="
  M 0.00 179.19
  L 0.00 176.96
  C 1.80 168.07 9.24 169.45 15.50 173.39
  C 131.86 246.73 264.09 296.00 401.66 307.75
  A 1.91 1.85 -54.7 0 0 402.62 307.57
  C 499.26 260.16 581.35 189.97 624.48 89.53
  C 626.96 83.74 635.98 81.77 639.02 88.16
  Q 640.07 90.37 639.79 94.97
  Q 633.92 190.65 616.99 284.91
  Q 616.92 285.28 617.29 285.16
  Q 655.42 272.76 690.79 253.82
  Q 695.83 251.13 698.38 250.96
  C 707.83 250.36 711.20 260.56 704.46 266.21
  Q 661.79 301.95 604.54 345.79
  Q 604.16 346.08 604.07 346.55
  C 602.02 357.60 598.77 368.61 596.10 379.53
  C 587.16 416.06 575.58 452.18 562.53 487.43
  C 549.78 521.87 538.19 551.57 520.36 589.32
  Q 520.07 589.94 520.75 589.96
  C 528.19 590.18 536.39 589.28 542.81 588.83
  Q 596.17 585.10 644.26 570.56
  Q 672.16 562.12 684.35 558.79
  C 693.87 556.19 698.67 561.07 704.78 568.22
  Q 708.61 572.71 706.13 577.69
  C 704.39 581.18 701.54 581.81 697.99 582.95
  C 661.37 594.76 624.38 605.68 586.75 613.77
  Q 531.58 625.63 475.18 626.02
  C 467.59 626.07 458.76 625.17 450.51 625.03
  C 444.75 624.93 437.87 624.34 431.84 623.71
  Q 371.93 617.54 314.15 600.80
  C 295.97 595.53 278.14 587.13 260.66 579.76
  C 255.84 577.73 251.25 574.62 253.78 568.57
  C 255.03 565.59 256.98 564.22 260.27 563.48
  Q 288.38 557.16 316.99 553.71
  C 319.84 553.37 323.61 553.86 326.18 555.11
  C 380.16 581.39 438.24 589.25 497.24 590.59
  Q 497.59 590.60 497.31 590.39
  Q 434.14 542.55 363.74 506.13
  Q 363.30 505.91 362.87 506.15
  Q 290.95 546.35 219.75 576.46
  C 212.91 579.35 206.85 575.23 206.92 567.73
  Q 206.95 564.80 206.82 563.27
  Q 200.89 496.38 176.81 433.69
  A 1.04 1.04 0.0 0 0 176.14 433.06
  Q 167.64 430.46 159.00 428.23
  Q 106.86 414.79 53.75 405.88
  Q 49.31 405.13 47.56 403.84
  C 41.79 399.57 43.68 391.11 50.93 390.17
  C 59.21 389.10 70.55 388.99 77.36 388.56
  Q 115.44 386.14 153.24 380.78
  Q 153.78 380.70 153.53 380.22
  Q 112.17 299.03 50.41 232.07
  Q 30.45 210.43 8.96 190.29
  C 5.25 186.82 1.31 184.49 0.00 179.19
  Z
  M 401.99 315.76
  C 261.63 304.08 127.19 253.34 8.54 178.61
  A 0.17 0.17 0.0 0 0 8.34 178.88
  C 73.36 237.28 127.34 307.70 165.51 386.66
  Q 163.62 387.37 161.93 387.62
  Q 108.40 395.64 54.39 397.73
  A 0.11 0.10 48.1 0 0 54.38 397.94
  Q 118.86 408.61 181.86 426.24
  C 182.35 426.38 182.61 426.68 182.89 427.05
  C 200.61 473.04 211.72 520.16 215.15 569.14
  Q 215.19 569.69 215.69 569.47
  Q 291.04 537.43 362.76 497.02
  Q 363.18 496.84 363.67 497.09
  Q 441.36 536.77 510.07 590.02
  A 0.76 0.75 -58.1 0 0 511.21 589.75
  C 529.36 552.02 547.58 505.68 559.18 473.19
  Q 582.08 409.05 596.78 342.55
  Q 596.92 341.95 597.25 341.49
  Q 597.76 340.78 598.01 340.60
  Q 648.59 302.11 696.71 262.05
  C 697.29 261.56 698.63 260.80 699.09 260.10
  A 0.80 0.80 0.0 0 0 698.04 258.96
  Q 654.35 282.85 607.05 296.55
  Q 607.01 296.36 606.89 296.25
  Q 606.74 296.13 606.78 295.95
  Q 625.73 195.43 631.80 93.31
  A 0.11 0.10 58.7 0 0 631.60 93.26
  C 587.14 195.78 503.15 268.08 403.96 315.68
  Q 403.33 315.99 401.99 315.76
  Z
  M 261.81 571.70
  C 278.73 578.54 295.86 587.02 313.27 592.15
  C 360.57 606.09 409.09 615.18 457.55 617.41
  C 540.16 621.23 620.54 600.25 698.35 574.35
  Q 698.82 574.20 698.55 573.79
  C 696.24 570.38 691.98 564.95 687.24 566.22
  C 669.49 570.94 650.85 577.25 633.11 581.94
  C 571.11 598.33 504.83 602.27 441.57 595.18
  C 401.73 590.71 361.63 581.09 325.44 563.53
  C 321.75 561.75 320.08 561.37 316.17 561.85
  Q 288.60 565.26 261.84 571.33
  Q 261.24 571.46 261.81 571.70
  Z"
/>
<path fill="#0075b3" d="
  M 607.05 296.55
  L 598.01 340.60
  Q 597.76 340.78 597.25 341.49
  Q 596.92 341.95 596.78 342.55
  Q 582.08 409.05 559.18 473.19
  C 547.58 505.68 529.36 552.02 511.21 589.75
  A 0.76 0.75 -58.1 0 1 510.07 590.02
  Q 441.36 536.77 363.67 497.09
  Q 363.18 496.84 362.76 497.02
  Q 276.06 453.49 182.89 427.05
  C 182.61 426.68 182.35 426.38 181.86 426.24
  Q 118.86 408.61 54.38 397.94
  A 0.11 0.10 48.1 0 1 54.39 397.73
  Q 108.40 395.64 161.93 387.62
  Q 163.62 387.37 165.51 386.66
  C 247.15 374.24 326.57 351.55 401.47 316.59
  Q 401.75 316.46 401.87 316.28
  Q 402.04 316.03 401.99 315.76
  Q 403.33 315.99 403.96 315.68
  C 503.15 268.08 587.14 195.78 631.60 93.26
  A 0.11 0.10 58.7 0 1 631.80 93.31
  Q 625.73 195.43 606.78 295.95
  Q 606.74 296.13 606.89 296.25
  Q 607.01 296.36 607.05 296.55
  Z"
/>
<path fill="#ffffff" d="
  M 433.15 201.07
  A 102.53 88.24 0.0 0 1 330.62 289.31
  A 102.53 88.24 0.0 0 1 228.09 201.07
  A 102.53 88.24 0.0 0 1 330.62 112.83
  A 102.53 88.24 0.0 0 1 433.15 201.07
  Z
  M 425.13 201.06
  A 94.49 80.24 0.0 0 0 330.64 120.82
  A 94.49 80.24 0.0 0 0 236.15 201.06
  A 94.49 80.24 0.0 0 0 330.64 281.30
  A 94.49 80.24 0.0 0 0 425.13 201.06
  Z"
/>
<ellipse fill="#1a294e" cx="330.64" cy="201.06" rx="94.49" ry="80.24"/>
<path fill="#1a294e" d="
  M 401.99 315.76
  Q 402.04 316.03 401.87 316.28
  Q 401.75 316.46 401.47 316.59
  C 326.57 351.55 247.15 374.24 165.51 386.66
  C 127.34 307.70 73.36 237.28 8.34 178.88
  A 0.17 0.17 0.0 0 1 8.54 178.61
  C 127.19 253.34 261.63 304.08 401.99 315.76
  Z"
/>
<path fill="#1a294e" d="
  M 598.01 340.60
  L 607.05 296.55
  Q 654.35 282.85 698.04 258.96
  A 0.80 0.80 0.0 0 1 699.09 260.10
  C 698.63 260.80 697.29 261.56 696.71 262.05
  Q 648.59 302.11 598.01 340.60
  Z"
/>
<path fill="#1a294e" d="
  M 182.89 427.05
  Q 276.06 453.49 362.76 497.02
  Q 291.04 537.43 215.69 569.47
  Q 215.19 569.69 215.15 569.14
  C 211.72 520.16 200.61 473.04 182.89 427.05
  Z"
/>
<path fill="#0075b3" d="
  M 261.81 571.70
  Q 261.24 571.46 261.84 571.33
  Q 288.60 565.26 316.17 561.85
  C 320.08 561.37 321.75 561.75 325.44 563.53
  C 361.63 581.09 401.73 590.71 441.57 595.18
  C 504.83 602.27 571.11 598.33 633.11 581.94
  C 650.85 577.25 669.49 570.94 687.24 566.22
  C 691.98 564.95 696.24 570.38 698.55 573.79
  Q 698.82 574.20 698.35 574.35
  C 620.54 600.25 540.16 621.23 457.55 617.41
  C 409.09 615.18 360.57 606.09 313.27 592.15
  C 295.86 587.02 278.73 578.54 261.81 571.70
  Z"
/>
</svg>
