<?xml version="1.0" encoding="UTF-8" standalone="no"?>
<!DOCTYPE svg PUBLIC "-//W3C//DTD SVG 1.1//EN" "http://www.w3.org/Graphics/SVG/1.1/DTD/svg11.dtd">
<svg xmlns="http://www.w3.org/2000/svg" version="1.1" viewBox="0.00 0.00 709.00 709.00">
<g stroke-width="2.00" fill="none" stroke-linecap="butt">
<path stroke="#30517f" vector-effect="non-scaling-stroke" d="
  M 607.22 295.75
  L 597.55 341.43"
/>
<path stroke="#30517f" vector-effect="non-scaling-stroke" d="
  M 363.15 497.23
  Q 276.28 453.52 183.00 427.00
  Q 182.60 427.13 182.43 426.89"
/>
<path stroke="#30517f" vector-effect="non-scaling-stroke" d="
  M 165.08 386.56
  C 172.15 385.89 180.93 384.04 186.06 383.16
  C 261.26 370.30 334.67 348.16 403.18 315.77"
/>
</g>
<path fill="#3c74af" d="
  M 607.22 295.75
  L 597.55 341.43
  C 586.49 389.99 572.93 437.31 555.37 483.95
  Q 546.22 508.24 536.91 532.47
  C 529.32 552.25 520.47 571.49 511.23 590.68
  A 0.49 0.49 0.0 0 1 510.48 590.85
  Q 441.29 537.02 363.15 497.23
  Q 276.28 453.52 183.00 427.00
  Q 182.60 427.13 182.43 426.89
  Q 118.07 408.63 51.44 397.94
  A 0.26 0.26 0.0 0 1 51.47 397.43
  C 88.76 396.04 125.88 392.50 162.82 387.11
  Q 163.93 386.95 165.08 386.56
  C 172.15 385.89 180.93 384.04 186.06 383.16
  C 261.26 370.30 334.67 348.16 403.18 315.77
  C 502.68 267.43 588.55 195.16 632.06 90.89
  A 0.25 0.25 0.0 0 1 632.54 91.00
  Q 631.82 99.14 631.29 107.06
  Q 624.90 202.14 607.22 295.75
  Z"
/>
<ellipse fill="#242d4e" cx="330.64" cy="201.06" rx="94.89" ry="80.61"/>
<path fill="#242d4e" d="
  M 7.23 174.86
  Q 6.92 175.53 6.16 175.70
  A 0.39 0.39 0.0 0 1 5.88 174.99
  L 6.76 174.45
  A 0.33 0.33 0.0 0 1 7.23 174.86
  Z"
/>
<path fill="#242d4e" d="
  M 403.18 315.77
  C 334.67 348.16 261.26 370.30 186.06 383.16
  C 180.93 384.04 172.15 385.89 165.08 386.56
  C 126.57 307.07 71.95 236.20 6.22 177.39
  Q 5.93 177.13 6.29 176.99
  Q 6.47 176.91 6.69 177.05
  C 122.13 250.07 255.97 302.44 392.75 314.53
  Q 400.66 315.23 403.18 315.77
  Z"
/>
<path fill="#242d4e" d="
  M 699.38 256.92
  A 0.93 0.93 0.0 0 1 699.16 255.08
  Q 701.34 254.74 702.78 253.02
  A 0.54 0.42 -18.1 0 1 703.69 253.34
  Q 703.33 254.01 702.49 254.14
  A 0.78 0.77 5.8 0 0 701.88 254.63
  Q 701.04 256.79 699.38 256.92
  Z"
/>
<path fill="#242d4e" d="
  M 597.55 341.43
  L 607.22 295.75
  Q 607.34 296.15 607.98 295.96
  Q 655.82 281.90 700.16 257.38
  Q 703.50 255.54 705.68 253.84
  Q 705.81 253.74 705.98 253.75
  Q 706.11 253.75 706.26 253.73
  A 0.61 0.54 -63.5 0 1 706.55 254.82
  Q 704.28 256.39 702.02 258.27
  Q 650.91 300.68 597.55 341.43
  Z"
/>
<path fill="#242d4e" d="
  M 182.43 426.89
  Q 182.60 427.13 183.00 427.00
  Q 276.28 453.52 363.15 497.23
  Q 290.95 537.87 215.06 570.20
  A 0.20 0.19 76.4 0 1 214.79 570.03
  C 211.56 520.71 200.12 472.96 182.43 426.89
  Z"
/>
<path fill="#3c74af" d="
  M 260.88 571.61
  Q 259.98 571.23 260.94 571.02
  Q 289.06 564.75 318.01 561.15
  C 323.05 560.52 332.03 566.48 336.07 568.17
  C 398.05 594.13 466.94 601.11 534.26 596.99
  Q 585.64 593.85 632.61 581.66
  C 649.49 577.28 667.16 571.25 684.58 566.52
  C 693.22 564.17 694.54 568.86 699.66 573.98
  A 0.23 0.23 0.0 0 1 699.57 574.36
  C 624.19 599.77 545.01 620.43 464.81 617.95
  C 415.08 616.42 366.44 607.60 318.60 594.26
  C 299.00 588.79 279.71 579.61 260.88 571.61
  Z"
/>
</svg>
